<svg width="78" height="130" viewBox="0 0 78 130" fill="none" xmlns="http://www.w3.org/2000/svg">
<g clip-path="url(#clip0_855_1705)">
<path d="M33.942 128.959C33.942 128.907 33.8818 128.854 33.8015 128.854C33.6509 128.854 33.5405 128.634 33.5405 128.331C33.5405 128.226 33.4501 128.121 33.3397 128.09C33.0687 128.016 32.9884 127.566 33.139 126.906C33.2393 126.487 33.3196 126.341 33.4501 126.341C33.661 126.341 33.7011 126.173 33.8417 124.403C33.9019 123.66 34.0424 122.655 34.1529 122.173C34.3637 121.262 34.3436 120.801 34.0725 120.56C33.7112 120.246 32.3559 122.361 31.9845 123.838C31.6231 125.283 31.2818 126.299 31.061 126.613C30.9305 126.791 30.8301 126.99 30.8301 127.053C30.8301 127.126 30.7899 127.179 30.7297 127.179C30.6795 127.179 30.6293 127.262 30.6293 127.367C30.6293 127.964 29.8162 128.111 26.132 128.194C23.3011 128.257 23.3513 128.257 22.5482 127.828C22.1768 127.629 22.0463 127.461 21.7953 126.917C21.5644 126.425 21.5343 125.608 21.7351 125.199C21.976 124.728 23.0401 124.089 24.305 123.67C25.881 123.147 27.2563 122.215 27.6779 121.398C27.7884 121.178 27.8988 121.105 28.1196 121.105C28.3003 121.105 28.5413 120.989 28.742 120.811C28.9227 120.644 29.254 120.403 29.4648 120.267C29.6857 120.131 30.0973 119.806 30.3683 119.544C30.9104 119.042 32.4664 117.953 34.0424 116.979C35.1065 116.319 35.9498 115.691 36.0501 115.45C36.0903 115.366 36.1907 115.156 36.261 114.999C36.3814 114.727 36.4316 114.706 36.8934 114.738L37.4054 114.769L37.3853 116.989C37.3652 119.167 37.3652 119.22 37.054 120.183C36.8834 120.717 36.6324 121.356 36.5019 121.586C36.3714 121.827 36.2108 122.225 36.1405 122.477C35.8996 123.492 35.4478 125.566 35.4478 125.712C35.4478 125.807 35.5984 125.943 35.7992 126.016C36.1204 126.131 36.1505 126.184 36.1505 126.561C36.1505 126.969 35.8393 127.807 35.6185 128.006C35.5482 128.058 35.3876 128.121 35.2471 128.142C35.1065 128.163 34.9861 128.257 34.9459 128.383C34.8355 128.833 34.6046 129.064 34.2733 129.064C34.0926 129.064 33.942 129.022 33.942 128.959Z" fill="white"/>
<path d="M42.2443 117.156C42.154 117.04 42.0737 116.873 42.0737 116.789C42.0737 116.58 41.883 116.422 41.5718 116.37C41.2606 116.328 40.7687 115.386 40.7687 114.841C40.7687 114.527 40.8088 114.475 41.1602 114.328C41.622 114.14 41.6119 114.202 41.2204 112.307C40.8691 110.694 40.8289 110.527 40.5177 109.898C40.1362 109.113 39.7748 108.076 39.6544 107.448C39.6042 107.155 39.5339 106.034 39.5138 104.955C39.4636 102.746 39.4737 102.746 40.1864 102.798C40.5779 102.83 40.6281 102.861 40.7285 103.196C40.849 103.594 41.4613 104.149 42.4451 104.767C44.2822 105.908 46.2096 107.228 46.7015 107.689C47.354 108.296 48.8297 109.27 49.1007 109.27C49.2011 109.27 49.4721 109.511 49.703 109.825C50.1347 110.391 51.3494 111.323 51.8011 111.427C51.9416 111.469 52.1525 111.553 52.2629 111.616C52.3733 111.689 52.6644 111.804 52.9154 111.878C53.5579 112.077 54.4212 112.558 54.8528 112.977L55.2243 113.333V114.538V115.752L54.8026 116.045C53.9293 116.653 54.0397 116.642 51.2389 116.569C47.3942 116.464 46.4907 116.307 46.4907 115.773C46.4907 115.668 46.4204 115.553 46.3401 115.511C46.2598 115.48 46.1895 115.365 46.1895 115.26C46.1895 115.155 46.0992 114.977 45.9988 114.883C45.798 114.695 45.3563 113.333 45.1254 112.223C45.0552 111.867 44.8845 111.344 44.754 111.071C44.6235 110.799 44.4227 110.391 44.3223 110.171C44.2119 109.94 43.9007 109.5 43.6196 109.176C43.1679 108.673 43.0776 108.61 42.947 108.736C42.666 108.966 42.6459 109.5 42.8567 110.432C42.9671 110.914 43.1077 111.93 43.1779 112.674C43.3185 114.381 43.3586 114.611 43.5393 114.611C43.6096 114.611 43.7501 114.778 43.8304 114.988C44.0915 115.648 43.981 116.496 43.6297 116.496C43.5393 116.496 43.4791 116.59 43.4791 116.737C43.4791 117.114 43.3285 117.25 42.8667 117.302C42.5154 117.344 42.3849 117.313 42.2443 117.156Z" fill="white"/>
<path d="M0.190897 117.01C-0.1203 116.832 -0.0399867 116.025 0.351519 115.125C0.542253 114.695 0.773136 114.025 0.873522 113.617C1.17468 112.329 1.61638 110.852 1.71676 110.789C1.777 110.758 1.81715 110.527 1.81715 110.276C1.81715 109.606 2.08819 108.915 2.57005 108.349C2.80093 108.077 3.04186 107.689 3.10209 107.491C3.15228 107.292 3.5438 106.223 3.96542 105.113C4.38704 104.003 4.72835 102.977 4.72835 102.83C4.72835 102.663 4.88896 102.391 5.2102 102.055C5.67198 101.563 5.70209 101.542 6.5353 101.417C7.65962 101.249 9.89823 101.312 10.2998 101.521C10.5709 101.668 10.611 101.741 10.6612 102.307L10.7214 102.935L10.7315 102.296C10.7516 101.773 10.8017 101.584 11.0527 101.228C11.2133 100.987 11.4342 100.746 11.5446 100.694C11.8658 100.516 13.1207 100.547 13.3014 100.746C13.472 100.924 13.5222 101.626 13.3716 101.794C13.2512 101.909 12.94 102.673 13.0002 102.673C13.0303 102.673 13.2612 102.254 13.5122 101.752C14.0442 100.694 14.9477 99.5735 15.4396 99.364C15.9114 99.1546 17.0558 99.1755 17.4473 99.4059C18.2705 99.8772 19.0434 100.799 19.3145 101.584C19.3848 101.825 19.6056 102.212 19.7963 102.464C20.1176 102.883 20.1377 102.956 20.1276 103.658C20.1075 105.501 19.4851 106.234 17.9593 106.234C17.357 106.234 17.1763 106.192 17.0458 106.045C16.7747 105.731 16.835 105.145 17.2365 104.349L17.6079 103.616L17.4373 103.145C17.2365 102.621 16.4635 101.762 16.0821 101.657C15.8913 101.605 15.7909 101.657 15.6102 101.888C15.3894 102.181 15.299 102.37 14.8373 103.563C14.6967 103.909 14.3554 104.726 14.0643 105.386C13.7832 106.035 13.462 106.956 13.3616 107.428C13.1608 108.381 13.1207 108.496 12.6489 109.533C12.3778 110.13 12.3075 110.391 12.3075 110.967C12.3075 111.564 12.3377 111.7 12.5585 111.941C12.9902 112.423 13.0905 112.433 13.7431 112.098C14.3554 111.774 15.3191 110.884 15.8211 110.192L16.0921 109.794H15.7809C15.6102 109.794 15.299 109.868 15.0983 109.951C14.9075 110.035 14.5361 110.109 14.2952 110.109H13.8434L13.8836 109.501C13.9137 109.019 14.0041 108.779 14.2952 108.307C14.7369 107.627 14.9276 107.532 16.0218 107.449C16.4635 107.417 17.1662 107.292 17.5778 107.166C17.9894 107.04 18.6218 106.915 18.9832 106.873L19.6357 106.81L20.1577 105.501C20.4489 104.778 20.75 103.836 20.8404 103.406C21.3523 100.83 21.7438 99.8562 22.6875 98.7776C22.8983 98.5263 23.0187 98.4844 23.4504 98.4844C24.0427 98.4844 24.2334 98.6415 24.3539 99.2174C24.394 99.4164 24.6952 99.94 25.0164 100.39L25.6087 101.197V102.139C25.6087 102.851 25.5685 103.103 25.4682 103.165C25.3878 103.207 25.1469 103.647 24.9261 104.139C24.7153 104.632 24.4141 105.187 24.2635 105.375L23.9824 105.71H24.2936C24.7755 105.71 24.906 106.014 24.906 107.103V108.025L24.3037 108.779C23.9724 109.197 23.4504 109.889 23.1492 110.318C22.3763 111.418 20.75 113.229 20.0674 113.742C19.2041 114.402 18.6319 114.643 17.8187 114.695C16.9454 114.748 16.7747 114.622 16.7747 113.9C16.7747 113.418 17.0859 112.245 17.4272 111.428C17.5979 111.02 17.5979 111.02 17.0558 111.627C16.7647 111.962 16.0118 112.643 15.3794 113.135C14.7469 113.627 14.0241 114.193 13.7832 114.392C13.0504 114.957 12.5987 115.135 11.7655 115.135C10.8519 115.135 10.4604 114.926 10.1392 114.224C9.94843 113.805 9.90827 113.523 9.86812 112.13L9.81792 110.527L9.45653 111.386C9.24572 111.868 8.91446 112.549 8.71369 112.915C8.51291 113.282 8.34225 113.596 8.34225 113.617C8.34225 113.638 8.19167 113.994 8.00093 114.423C7.51908 115.481 7.19784 115.784 6.4851 115.847C6.02333 115.889 5.90286 115.858 5.7824 115.701C5.53144 115.355 5.60171 114.528 5.93298 113.826C6.0936 113.481 6.23414 113.146 6.23414 113.083C6.23414 113.02 6.37468 112.769 6.5353 112.528C6.94688 111.941 7.8102 110.297 8.19167 109.376C8.30209 109.114 8.6434 108.454 8.94456 107.909C9.7075 106.569 10.2496 105.281 10.2496 104.82C10.2496 104.747 9.79786 105.166 9.23569 105.763C8.13145 106.946 6.90673 107.92 5.73221 108.538C4.70827 109.082 4.31676 109.48 3.78472 110.527C3.03182 112.015 2.62024 113.292 2.4295 114.769C2.28896 115.805 1.92757 116.622 1.47584 116.905C1.11445 117.135 0.482017 117.188 0.190897 117.01ZM20.6697 110.423C21.4126 109.637 22.1353 108.569 22.4566 107.805C22.5168 107.658 22.5971 107.281 22.6373 106.967C22.6875 106.611 22.7878 106.307 22.9184 106.161L23.1292 105.92H22.567C22.055 105.92 21.9848 105.951 21.794 106.244C21.6736 106.412 21.4929 106.778 21.3925 107.051C20.7902 108.737 20.5191 109.334 19.6257 111.009C19.435 111.355 19.2844 111.69 19.2844 111.732C19.2844 111.857 19.716 111.449 20.6697 110.423ZM6.68588 105.668C7.52912 104.998 8.74379 103.857 8.74379 103.731C8.74379 103.584 8.03105 103.302 7.68974 103.302C7.07738 103.302 6.84649 103.501 6.43491 104.349C6.2241 104.789 5.89283 105.427 5.69205 105.773C5.04958 106.883 5.16001 106.873 6.68588 105.668ZM23.1593 103.741C23.2195 103.7 23.3701 103.511 23.4805 103.312C23.6712 102.987 23.6712 102.925 23.5407 102.579C23.4705 102.37 23.3601 101.94 23.3199 101.626L23.2295 101.05L23.1091 101.364C23.0388 101.542 22.8882 102.097 22.7778 102.61C22.567 103.511 22.567 103.542 22.7477 103.679C22.9585 103.846 23.0087 103.857 23.1593 103.741Z" fill="white"/>
<path d="M26.975 116.852C26.8545 116.537 26.9148 115.857 27.1256 115.103C27.7379 112.862 27.8383 112.286 27.7681 111.312C27.6677 109.846 27.2561 107.49 27.0955 107.49C27.0553 107.49 27.0152 107.563 27.0152 107.657C27.0152 107.898 25.7804 110.83 25.2383 111.888C24.4754 113.375 23.602 114.443 22.9997 114.611C22.548 114.747 21.785 114.747 21.4437 114.611C21.2128 114.516 21.1827 114.454 21.2128 114.066C21.243 113.668 21.2932 113.584 21.8152 113.166C22.3874 112.715 22.7789 112.202 23.4615 110.998C23.7928 110.422 23.9634 110.108 24.6661 108.788C25.1781 107.825 25.3989 106.997 25.5094 105.573C25.7603 102.4 25.7704 102.358 26.2121 101.311C26.7341 100.054 26.9148 99.4783 26.9148 98.9966C26.9148 98.7767 27.0152 98.473 27.1457 98.2635C27.3464 97.9494 27.4267 97.9075 27.8885 97.8761C28.3403 97.8446 28.4406 97.8865 28.7518 98.1693C28.9526 98.3473 29.3441 98.5672 29.6352 98.651C30.348 98.8709 30.5588 99.028 31.0808 99.7611C31.4723 100.306 31.5325 100.463 31.5325 100.892C31.5325 101.541 31.1912 102.463 30.8098 102.871C30.5086 103.185 29.7256 103.51 29.2538 103.51C28.9426 103.51 28.1294 103.72 28.0692 103.824C28.0491 103.866 28.1796 104.39 28.3603 104.987C28.5511 105.584 28.8221 106.547 28.9627 107.123C29.1132 107.699 29.2939 108.432 29.3742 108.746C29.5549 109.437 29.7155 110.39 29.836 111.521C29.8862 111.982 29.9464 112.558 29.9866 112.809C30.1071 113.658 29.1433 115.951 28.3001 116.831C28.0592 117.082 27.0654 117.103 26.975 116.852ZM28.9225 100.965C29.0229 100.934 28.9627 100.85 28.7217 100.704C28.531 100.578 28.3403 100.473 28.3101 100.473C28.26 100.473 27.9186 101.154 27.9186 101.259C27.9186 101.28 28.1094 101.238 28.3503 101.154C28.5812 101.081 28.8422 100.997 28.9225 100.965Z" fill="white"/>
<path d="M52.3428 102.89C51.8007 102.534 51.2385 101.864 50.4555 100.639C49.4516 99.0576 48.8594 97.7905 48.5482 96.5443C47.8053 93.6539 48.5783 88.3026 50.2045 84.9724C50.586 84.1975 51.1281 82.5429 51.3188 81.5899C51.7605 79.3488 51.3088 73.6938 50.5057 71.4109C50.3852 71.0653 50.2146 70.594 50.1343 70.3741C49.9636 69.8819 49.4617 68.73 49.1906 68.2168C49.0903 68.0179 48.8895 67.5885 48.7489 67.2743C48.6084 66.9602 48.3976 66.5099 48.2872 66.269C48.0864 65.8606 48.0864 65.7035 48.1265 63.4415C48.1567 62.122 48.237 60.7397 48.3072 60.3626C48.4177 59.7343 48.4277 58.8651 48.3875 56.069C48.3775 55.4616 48.4177 54.6658 48.4779 54.2887C48.6686 53.1368 48.8092 51.2309 48.7389 50.6758L48.6787 50.1417L48.0161 50.1732C47.6447 50.1941 47.0725 50.2569 46.7312 50.3093C45.7574 50.4769 41.8524 50.0475 41.3505 49.7229C41.2802 49.6705 40.9991 49.6077 40.718 49.5658C40.437 49.5239 39.8748 49.3249 39.4632 49.1155C39.0516 48.906 38.6601 48.7385 38.5899 48.7385C38.5196 48.7385 38.4292 48.8641 38.3991 49.0317C38.359 49.1888 38.2686 49.5762 38.1883 49.8904C38.108 50.2046 38.0076 50.6654 37.9675 50.8957C37.9273 51.1366 37.7968 51.4927 37.6864 51.6916C37.5659 51.9011 37.4455 52.2257 37.4053 52.4142C37.3651 52.6027 37.2346 52.9274 37.1142 53.1368C36.9937 53.3358 36.813 53.6918 36.7126 53.9222C36.1003 55.3255 35.6385 56.2575 35.508 56.3727C35.4177 56.4565 35.3474 56.5717 35.3474 56.6345C35.3474 56.7393 35.0864 57.1267 34.1528 58.4253C33.9922 58.6557 33.8215 58.928 33.7814 59.0327C33.7512 59.1269 33.2895 59.4201 32.7574 59.6924C32.2354 59.9542 31.603 60.3103 31.3721 60.4883C30.9806 60.7815 30.8902 60.8025 30.4084 60.7501C29.535 60.6559 29.3242 60.5302 29.3242 60.1113C29.3242 59.9123 29.3744 59.7134 29.4246 59.682C29.7559 59.4725 31.874 55.7758 32.9381 53.5557C33.2292 52.9483 33.5706 52.2362 33.7011 51.9744C33.8316 51.7021 33.942 51.3984 33.942 51.2832C33.942 51.1785 33.9922 51.0319 34.0424 50.9795C34.3234 50.6863 34.9458 48.55 34.9458 47.8693C34.9458 47.6389 35.0061 47.3352 35.0864 47.1886C35.1667 47.0315 35.2771 46.6964 35.3474 46.4346C35.5281 45.7434 35.6184 45.5758 36.03 45.2512C36.3814 44.9685 36.4416 44.958 37.315 44.9894C38.1883 45.0208 38.2385 45.0313 38.5397 45.3559C38.7204 45.534 38.9814 45.7539 39.142 45.8376C39.2926 45.9214 39.5937 46.089 39.8146 46.2042C41.0292 46.8744 41.8624 47.1676 44.0107 47.6808C44.7636 47.8588 47.464 47.8274 48.2169 47.6284C49.2107 47.3666 49.2007 47.3666 49.2007 46.5393C49.2007 46.1413 49.2408 45.6073 49.3011 45.3664C49.3513 45.1151 49.4516 44.6333 49.5119 44.2878C49.6725 43.4919 50.1041 42.4656 50.4153 42.1828C51.1984 41.4602 51.369 41.4079 52.7142 41.4079C53.8084 41.4079 54.0292 41.4393 54.4208 41.6487C55.0733 41.9839 55.8964 42.5703 56.5489 43.1777C56.8601 43.4709 57.1412 43.7118 57.1814 43.7118C57.3018 43.7118 58.7675 42.5703 59.8215 41.6697C60.3636 41.2089 61.0161 40.6434 61.2872 40.413C61.5582 40.1931 61.8895 39.9104 62.0099 39.7847C62.4516 39.3658 62.813 39.0412 63.4856 38.4861C63.857 38.1824 64.1984 37.8578 64.2486 37.7531C64.2987 37.6588 64.5899 37.4494 64.9011 37.2923C65.2424 37.1143 65.6941 36.7268 66.0856 36.287C67.23 34.9989 68.7358 33.805 70.3821 32.894C72.6107 31.6582 73.1829 31.4383 74.9999 31.1451C76.5157 30.8938 77.0277 30.8833 77.4092 31.0927C77.7906 31.3022 77.9111 31.543 77.9111 32.119C77.9111 32.4646 77.8509 32.6531 77.6601 32.8625C77.5196 33.0196 77.4092 33.1976 77.4092 33.2605C77.4092 33.4909 77.0478 33.648 76.5459 33.6584C76.2648 33.6584 75.813 33.7213 75.542 33.805C75.271 33.8888 74.8594 33.9831 74.6184 34.0145C74.1667 34.0878 72.4702 34.9675 71.8879 35.4387C71.6972 35.5958 71.4262 35.7843 71.2957 35.8576C71.0447 35.9937 69.6995 37.2504 68.3242 38.6432C67.5814 39.3867 66.8084 40.0779 65.9652 40.7586C65.7744 40.9157 65.3428 41.3136 65.0014 41.6487C64.6702 41.9734 64.3489 42.2457 64.2987 42.2561C64.2486 42.2561 64.0076 42.4132 63.7567 42.6122C63.5057 42.8112 62.9034 43.2405 62.4014 43.5652C61.9096 43.9003 61.3875 44.2563 61.247 44.3611C61.1065 44.4763 60.6949 44.78 60.3235 45.0627L59.6408 45.5549L60.3134 46.1623C60.6748 46.4869 61.1968 46.8744 61.4578 47.0105C61.7188 47.1572 61.9698 47.3247 61.9999 47.3875C62.0401 47.4504 62.6223 47.775 63.2949 48.1101C64.5698 48.7594 65.5335 49.0212 67.1196 49.1259C68.4848 49.2202 69.1875 48.6233 69.7798 46.8535C69.8501 46.6545 70.0308 46.2042 70.1814 45.8586C70.6231 44.8742 71.0447 43.628 71.1852 42.874C71.2354 42.6122 71.386 42.0048 71.5366 41.5126C71.6872 41.0204 71.8779 40.3188 71.9582 39.9418C72.1088 39.2925 72.2192 38.9364 72.3999 38.5594C72.4401 38.4652 72.5103 38.1405 72.5505 37.8264C72.5806 37.5227 72.691 37.0619 72.7914 36.8001C72.8918 36.5383 73.0223 36.1194 73.1026 35.8576C73.2432 35.334 73.454 35.0198 73.6648 35.0198C73.7451 35.0198 73.976 34.9046 74.1767 34.758C74.4679 34.5486 74.6686 34.4962 75.1706 34.4962C75.9335 34.4962 76.0439 34.6428 75.9837 35.5434C75.9435 36.088 75.5922 37.0514 75.3814 37.2295C75.3312 37.2609 75.2308 37.5436 75.1505 37.8578C74.9999 38.4024 74.8694 38.7479 74.6887 39.1249C74.6385 39.2297 74.5984 39.4182 74.5984 39.5438C74.5984 39.8161 74.2571 41.0309 73.986 41.7325C73.8856 42.0048 73.7652 42.497 73.735 42.8321C73.6949 43.1777 73.5845 43.6489 73.474 43.9003C73.3736 44.1516 73.2933 44.4658 73.2933 44.6019C73.2933 44.7381 73.2532 44.8742 73.203 44.9056C73.1628 44.937 73.0625 45.3245 72.9922 45.7748C72.932 46.2147 72.8014 46.6859 72.7211 46.822C72.6308 46.9582 72.5304 47.2723 72.4802 47.5132C72.4401 47.7541 72.2192 48.3719 71.9883 48.8851C71.4161 50.1732 70.6933 51.1366 69.7397 51.9011C69.1273 52.3933 68.5953 52.4666 65.8648 52.4247C64.1381 52.3933 63.7065 52.3514 63.2045 52.1734C62.8733 52.0582 62.5621 51.922 62.5119 51.8697C62.4516 51.8173 62.3312 51.7754 62.2408 51.7754C62.03 51.7754 61.5682 51.5031 60.6045 50.8434C60.2331 50.5816 59.7211 50.2465 59.4902 50.0999C59.2493 49.9532 58.8578 49.66 58.6169 49.4401C58.376 49.2097 57.8941 48.8327 57.5327 48.6023L56.8802 48.1625L54.9528 49.1888C53.2663 50.0789 52.5837 50.3721 51.63 50.592C51.2486 50.6863 51.1381 51.0214 51.0679 52.299C51.0277 52.9588 50.9173 54.4668 50.8069 55.6501C50.6964 56.8335 50.6061 58.4567 50.6061 59.2631C50.6061 60.0694 50.5559 61.347 50.4856 62.1115C50.3752 63.431 50.3852 63.5253 50.596 64.2583C51.2084 66.3109 51.5999 67.2429 52.3628 68.531C52.4833 68.73 52.6238 69.0127 52.664 69.1593C52.7041 69.306 52.8246 69.5887 52.925 69.7877C53.6377 71.2014 54.1196 74.4792 54.1196 77.9037C54.1196 79.4117 54.0794 80.1552 53.969 80.5741C53.8887 80.8883 53.8184 81.2967 53.8184 81.4852C53.8184 81.8622 53.3366 83.3388 52.8648 84.3965C52.3428 85.5798 52.2223 85.8626 51.9011 86.6689C50.315 90.6484 50.0439 92.3554 50.596 94.9211C50.8069 95.9473 51.9011 98.0208 52.7042 98.9633C53.2964 99.644 53.6879 100.168 54.1497 100.88C54.491 101.393 54.5211 101.498 54.5211 102.157C54.5211 102.545 54.481 102.89 54.4308 102.922C54.3806 102.953 53.969 103.006 53.5072 103.048C52.7744 103.1 52.6238 103.079 52.3428 102.89ZM52.6038 46.3194C53.2362 46.089 54.0192 45.691 54.0192 45.5968C54.0192 45.5654 53.8887 45.3769 53.7381 45.1779C53.4872 44.8742 53.3868 44.8323 53.0053 44.8323C52.4532 44.8323 51.9111 45.1988 51.9111 45.5549C51.9111 45.691 51.8709 45.8272 51.8107 45.8586C51.7605 45.89 51.7103 46.089 51.7103 46.2984C51.7103 46.6021 51.7404 46.6545 51.891 46.5917C51.9814 46.5498 52.3026 46.4241 52.6038 46.3194Z" fill="white"/>
<path d="M9.2148 97.0472C9.17465 97.0157 9.14453 96.7435 9.14453 96.4398C9.14453 95.9685 9.22483 95.7591 9.81711 94.7014C10.6202 93.2667 11.1322 92.2195 11.7948 90.68C12.4874 89.0882 14.184 85.6219 14.7963 84.5538C15.0774 84.0616 15.5091 83.4123 15.7399 83.1086C15.9809 82.7944 16.1716 82.5117 16.1716 82.4593C16.1716 82.4174 16.4527 82.187 16.794 81.9462C17.2859 81.6006 17.4967 81.5168 17.7778 81.5378C18.1091 81.5692 18.1291 81.5901 18.1592 82.009C18.1793 82.3441 18.1191 82.5745 17.9284 82.9306C17.6372 83.4437 17.2758 84.5538 17.2758 84.9727C17.2758 85.1193 17.1855 85.4858 17.0851 85.7895C16.9847 86.0827 16.9145 86.334 16.9245 86.334C16.9345 86.334 17.0952 86.1141 17.2758 85.8419C17.4666 85.5591 17.9986 84.8365 18.4704 84.2187C18.9523 83.6008 19.5345 82.6792 19.7855 82.1766C20.3175 81.0979 20.6388 80.8675 21.6426 80.8466L22.245 80.8361L22.2249 81.3074C22.1546 82.6164 22.0241 83.894 21.9237 84.0825C21.8735 84.1977 21.7029 84.7423 21.5523 85.2868C21.4017 85.8314 21.1307 86.5644 20.95 86.91C19.645 89.3605 19.0728 91.256 19.1029 93.0363C19.1029 93.3505 19.133 93.4971 19.1531 93.3505C19.5345 90.8895 19.7554 89.9784 20.1971 88.9312C20.6789 87.7897 21.1508 87.0462 22.3453 85.5486C23.2388 84.4386 23.8712 83.4542 24.2226 82.6478C24.4133 82.2185 25.0156 81.3283 25.4874 80.8047C25.8689 80.3753 26.5415 80.0612 27.0735 80.0507C27.4249 80.0507 27.5253 80.1031 27.7863 80.4486C27.9569 80.6581 28.1176 81.0037 28.1477 81.2026C28.1677 81.4016 28.2681 81.7577 28.3484 81.9881C28.4287 82.2185 28.5291 82.9306 28.5693 83.5589L28.6496 84.7109L28.7901 84.292C29.1013 83.3599 29.2218 82.4488 29.1616 81.4749L29.1013 80.522L29.4326 79.9983C29.9747 79.1606 31.1994 78.6893 32.4241 78.8464C34.2411 79.0873 34.7732 80.3649 34.3415 83.4961C33.95 86.2712 33.2473 88.3238 32.133 89.8946C31.3801 90.9418 29.804 92.408 28.4087 93.3295C26.8728 94.3558 26.5013 94.5548 25.8287 94.7014C24.6542 94.9632 24.2025 94.8166 24.2025 94.1882C24.2025 93.8322 24.2728 93.717 24.855 93.1305C25.6079 92.387 26.1098 91.6225 26.1098 91.2351C26.1098 91.0884 26.3708 90.4287 26.6921 89.7794C27.1538 88.8264 28.0172 86.5016 28.0172 86.1979C28.0172 86.1665 27.7662 86.2607 27.455 86.4073C26.933 86.6482 26.8226 86.6692 25.9291 86.6063C25.387 86.5749 24.7747 86.5225 24.5538 86.4807C24.1724 86.4283 24.1322 86.4492 23.821 86.8472C23.5299 87.2242 22.8272 88.5123 21.8434 90.4706C21.462 91.2246 21.0905 92.6174 21.2712 92.6174C21.3716 92.6174 23.2087 90.6277 24.0017 89.6747C24.3129 89.2977 24.7145 88.6694 24.8952 88.2714C25.0859 87.863 25.2967 87.4232 25.367 87.2766C25.5376 86.9205 25.8689 86.7529 26.4311 86.7529C27.0635 86.7529 27.2141 86.931 27.2141 87.6535C27.2141 88.3971 27.0635 88.6903 26.15 89.7061C25.7384 90.1564 25.3268 90.6591 25.2365 90.8162C25.1361 90.9733 24.8148 91.434 24.5036 91.832C24.2025 92.2404 23.7307 92.8897 23.4596 93.2771C22.8874 94.1254 22.265 94.7537 21.5523 95.1831C21.1006 95.4554 20.95 95.4973 20.2573 95.4973C19.3036 95.4973 19.2334 95.424 19.123 94.4186L19.0527 93.717L18.9322 94.0835C18.7114 94.7537 18.2897 95.5287 18.0589 95.6962C17.9284 95.7905 17.6272 95.8638 17.3662 95.8638C16.7036 95.8638 16.5731 95.6334 16.5731 94.3977C16.5731 93.5285 16.6033 93.3923 16.9245 92.7326C17.1152 92.3346 17.3361 91.7377 17.4164 91.4026C17.9183 89.371 18.099 88.7845 18.5206 87.7164C18.7716 87.0671 18.9824 86.4807 18.9824 86.4073C18.9824 86.1141 17.0249 89.4652 16.0511 91.434C15.499 92.5546 15.3685 92.9106 15.3685 93.2981C15.3685 93.7798 15.238 94.1673 15.0272 94.3139C14.967 94.3558 14.6859 94.3977 14.4048 94.3977C14.0233 94.3977 13.8728 94.3558 13.8226 94.2301C13.7021 93.9055 13.7623 91.832 13.923 90.9628C14.0033 90.4811 14.0535 90.0622 14.0334 90.0412C13.9531 89.947 12.3971 92.8687 11.8349 94.1882C11.5137 94.9213 10.4496 96.6387 10.1284 96.9424C9.92754 97.1205 9.3453 97.1938 9.2148 97.0472ZM31.3299 87.8525C32.1832 86.6587 32.5747 85.601 32.8357 83.8207C33.0465 82.3965 32.5546 81.3178 31.7515 81.454C31.5608 81.4854 31.36 81.5587 31.2898 81.6111C31.1191 81.7577 30.8882 82.6583 30.6272 84.1349C30.5067 84.7946 30.3461 85.7371 30.2558 86.2293C30.055 87.3394 29.5129 89.1092 29.1214 89.9365C28.9508 90.2716 28.8203 90.5858 28.8203 90.6172C28.8303 90.7219 30.9384 88.3971 31.3299 87.8525ZM26.2905 84.5852C26.3407 84.4805 26.411 84.072 26.4411 83.6636C26.4712 83.2657 26.5315 82.8468 26.5616 82.7525C26.7222 82.3336 26.421 82.6059 26.16 83.1191C25.9994 83.4123 25.7384 83.8731 25.5778 84.1244C25.3369 84.4909 25.3067 84.5957 25.4172 84.669C25.6681 84.826 26.2002 84.7737 26.2905 84.5852Z" fill="white"/>
<path d="M6.79809 84.8064C6.65755 84.4189 6.76798 84.0419 7.28998 83.1413C7.60118 82.6177 7.95253 81.8846 8.08303 81.5076C8.22358 81.1411 8.49462 80.4499 8.68535 79.9891C8.88612 79.5074 9.13709 78.6487 9.25755 78.0518C9.36798 77.4548 9.56875 76.4914 9.69925 75.9154C10.1109 74.0828 10.1109 74.0514 9.73941 73.622C9.44829 73.2764 9.4282 73.1926 9.46835 72.6795C9.52858 71.915 9.74944 71.6009 10.4923 71.2553C11.1549 70.9411 12.7209 70.4699 13.4838 70.3651C14.0661 70.2709 14.8892 70.4489 15.2707 70.7526C16.3649 71.5904 15.9634 73.8733 14.1865 76.9626C13.7047 77.8004 12.7711 79.1723 10.8939 81.7799C9.4784 83.7487 8.09307 84.9739 7.28998 84.9739C6.98883 84.9739 6.83825 84.9215 6.79809 84.8064ZM11.185 78.6173C12.6406 76.439 13.8452 74.198 13.9356 73.4859C13.9858 73.1193 13.9557 73.046 13.6244 72.7423C13.1827 72.3444 12.8715 72.3234 12.2591 72.6481C11.717 72.9308 11.7873 72.6271 11.2452 76.7532C11.1549 77.4548 10.8939 78.4497 10.6028 79.2456C10.4622 79.6121 10.6529 79.4027 11.185 78.6173Z" fill="white"/>
<path d="M12.588 81.8841C12.3973 81.3501 12.9494 80.0829 14.0235 78.5749C15.2583 76.847 16.0714 75.6636 16.0714 75.6008C16.0714 75.5694 15.971 75.5484 15.8606 75.5484C15.6498 75.5484 15.6397 75.517 15.7 74.7944C15.7903 73.7367 15.9509 73.5901 17.4065 73.2969C17.798 73.2131 18.2899 72.3649 18.7919 70.9197C19.3038 69.4326 19.605 68.7415 20.0668 68.0084C20.5787 67.2021 20.639 67.1706 21.3919 67.2021L22.0444 67.223L22.1247 68.3226C22.1749 68.93 22.1849 69.8829 22.1648 70.438C22.1247 71.4014 22.1347 71.4538 22.3355 71.4852C22.5262 71.5166 22.5463 71.5899 22.5463 72.1135C22.5463 72.6162 22.4861 72.7838 22.1648 73.2655C21.9139 73.653 21.7934 73.9567 21.7934 74.1975C21.7934 74.3965 21.6529 74.9515 21.4822 75.4437C21.0907 76.5538 20.6892 77.9885 20.7393 78.0513C20.7695 78.0722 20.8799 77.978 20.9903 77.8419C21.3919 77.3497 21.683 76.7423 21.8938 75.915C22.0143 75.4542 22.3154 74.6059 22.5664 74.0404C22.8475 73.3912 23.1085 72.5638 23.259 71.8413C23.3895 71.2025 23.5502 70.4589 23.6104 70.1866C23.6706 69.9144 23.781 69.0871 23.8513 68.354C23.9216 67.6105 24.032 66.8879 24.0822 66.7308C24.2629 66.27 24.6042 66.1129 25.317 66.1444C25.9494 66.1758 25.9494 66.1758 26.0397 66.5423C26.1903 67.223 26.3309 67.6419 26.6421 68.3226C26.8127 68.6996 27.0235 69.2651 27.1239 69.5793L27.2946 70.1552L27.3749 69.3175C27.4753 68.3016 27.4753 67.401 27.3648 66.2596C27.2946 65.5265 27.3146 65.3589 27.4552 65.1286C27.666 64.8039 28.178 64.5526 28.6397 64.5526C29.4027 64.5631 29.4529 64.762 29.3224 67.2544C29.1517 70.7731 29.0112 72.6372 28.8606 73.3807C28.6498 74.4488 28.6899 74.4384 29.1517 73.3493C29.5131 72.4905 29.6838 72.2287 30.4467 71.4014L31.3301 70.4485L30.778 70.5008C30.1154 70.5532 29.7841 70.4799 29.5231 70.2076C29.3525 70.0296 29.3224 69.8515 29.3224 69.0556C29.3224 67.9561 29.4127 67.7257 30.256 66.5842C30.5571 66.1758 31.0791 65.4218 31.4104 64.9086C32.615 63.0446 33.5085 62.5419 34.5926 63.0865C35.0544 63.3169 35.4459 63.9766 35.4459 64.5107C35.4459 65.8511 34.4722 66.5947 33.7393 65.8197L33.4482 65.5265L32.6451 66.4376C32.2034 66.9507 31.7116 67.5162 31.561 67.7047L31.2799 68.0503L32.0328 67.6209C33.0969 67.0136 33.8096 66.8251 34.7031 66.8774C35.5764 66.9402 36.0583 67.223 36.3293 67.8199C36.4197 68.0398 36.5301 68.2179 36.5602 68.2179C36.6004 68.2179 36.6606 67.8723 36.7007 67.4639C36.7309 67.045 36.8011 66.469 36.8513 66.1758C36.9015 65.893 36.9919 65.2019 37.0621 64.6573C37.2629 62.9084 37.7046 62.0392 38.3973 62.0392C38.849 62.0392 39.3309 62.521 39.4112 63.0655C39.5417 63.8719 39.9131 64.9296 40.5556 66.2596L41.2181 67.6419L41.188 65.6522C41.1679 64.5631 41.1278 63.275 41.0977 62.8142C41.0374 61.7565 41.1278 61.5156 41.6297 61.5156C41.9007 61.5156 42.1316 61.6308 42.5533 61.9764C42.8745 62.2277 43.537 62.6466 44.0289 62.9084C44.8019 63.3064 44.9926 63.4635 45.3641 63.9766C45.595 64.3117 45.8158 64.6992 45.856 64.8458C45.9363 65.1809 45.7355 66.6156 45.5849 66.8041C45.5146 66.8879 45.2436 66.9926 44.9726 67.024C44.4907 67.0869 43.6073 67.5895 43.517 67.8513C43.4868 67.9142 43.7378 68.5739 44.0691 69.2965C44.9224 71.171 45.3841 72.7523 45.3841 73.7682C45.3841 74.0509 45.4745 74.5745 45.5849 74.941C45.856 75.8417 45.7756 77.1402 45.4243 77.5067C45.1834 77.7581 44.571 77.8419 44.3 77.6534C44.0791 77.5172 43.8783 76.4909 43.8783 75.4961C43.8683 74.9829 43.8282 74.3441 43.7679 74.0823C43.7077 73.8205 43.6274 73.3283 43.5672 72.9827C43.4668 72.3439 43.1556 71.3072 42.9146 70.8359L42.7841 70.5741L42.7741 70.815C42.7741 71.0663 41.1378 76.292 40.8266 77.0355C40.6158 77.5591 40.2343 77.7476 39.4112 77.7476H38.7587V77.2764C38.7587 76.7318 38.9193 76.3443 39.3108 75.9673C39.4513 75.8312 39.6621 75.4961 39.7726 75.2343C40.0637 74.564 40.6158 72.5848 40.7664 71.7261C40.8366 71.3281 40.9772 70.6788 41.0876 70.2914C41.198 69.9144 41.2683 69.4536 41.2482 69.286L41.2181 68.9719L40.656 69.4117C40.1339 69.8201 40.1038 69.8725 40.2745 69.9772C40.5455 70.1552 40.5455 71.3805 40.2845 71.8308C40.1841 72.0088 40.0637 72.4172 40.0336 72.7419C39.9332 73.5901 39.6722 74.208 38.8892 75.4542C37.9054 77.0145 37.7548 77.2135 37.293 77.4963C36.7409 77.8419 35.8475 77.8523 35.5363 77.5277C35.3255 77.3078 35.3154 77.2345 35.3857 75.8731C35.4158 75.0877 35.5162 74.1452 35.5965 73.7682C35.8073 72.7942 35.7772 72.5743 35.5162 73.1398C35.0644 74.1137 33.7795 75.8835 32.9061 76.7318C32.083 77.5277 30.8683 78.0513 29.8544 78.0618C28.9509 78.0618 28.5494 77.6324 28.4189 76.5119C28.3787 76.1244 28.3386 75.894 28.3285 76.0092C28.2583 77.0355 27.7463 77.4649 26.632 77.4125L25.9594 77.3811L25.9996 75.5903C26.0297 73.9252 26.0096 73.7367 25.7587 72.7209C25.4173 71.3176 25.3571 71.2024 25.2668 71.8517C25.1965 72.4172 24.7749 73.8519 24.5239 74.3441C24.4436 74.5117 24.1826 75.2343 23.9517 75.9359C23.4698 77.3811 22.6366 78.8891 22.1347 79.2242C21.7733 79.4546 20.7996 79.4965 20.6088 79.2975C20.5085 79.1928 20.4683 79.2033 20.4281 79.3708C20.3077 79.8421 19.1131 80.3447 18.4305 80.2191C17.7478 80.0829 17.6976 79.287 18.32 78.4388C18.5208 78.1665 18.6814 77.8209 18.6814 77.6848C18.6814 77.5382 18.9123 76.9203 19.1934 76.3024C19.7355 75.1191 19.9664 74.187 19.7254 74.187C19.6451 74.187 19.4142 74.2603 19.1934 74.3546C18.8822 74.4803 18.7015 74.6688 18.3903 75.1924C18.1594 75.5694 17.9787 75.894 17.9787 75.9254C17.9787 75.9464 17.6475 76.4595 17.2459 77.046C16.8343 77.6324 16.3224 78.4702 16.0915 78.8996C15.7 79.6536 14.6158 81.0149 13.8529 81.7061C13.5617 81.9679 13.3911 82.0412 13.0698 82.0412C12.7888 82.0412 12.6281 81.9889 12.588 81.8841ZM31.4204 75.7474C31.8521 75.4751 32.1733 75.1191 32.866 74.1556C33.9301 72.6686 34.4922 71.5061 34.8536 70.0191C34.9741 69.5164 34.9641 69.4536 34.7834 69.1918C34.4019 68.6577 34.3015 68.6577 33.5085 69.0871C33.117 69.2965 32.6552 69.5897 32.4946 69.7259L32.2034 69.9772L32.6451 69.9248C32.8861 69.8934 33.2475 69.9144 33.4382 69.9667C33.7895 70.061 33.7895 70.0715 33.7895 70.6579C33.7895 70.9825 33.7394 71.2967 33.6691 71.37C33.6088 71.4328 33.3679 71.5271 33.127 71.5795C32.6251 71.6946 31.9123 72.145 31.5007 72.5953C31.1996 72.9304 30.4366 74.6478 30.3563 75.2133C30.3162 75.4542 30.3563 75.6113 30.4768 75.7579C30.7077 76.0302 30.9888 76.0197 31.4204 75.7474ZM38.1061 73.1817C38.3772 72.6057 38.4776 72.2183 38.5679 71.4014C38.6382 70.8359 38.7486 70.2914 38.8289 70.2076C38.9394 70.0819 38.8992 70.04 38.5378 69.9458C38.2969 69.883 38.076 69.8411 38.0359 69.862C38.0058 69.8829 37.9455 70.1866 37.9054 70.5427C37.8652 70.9092 37.7046 71.6423 37.5339 72.1764C37.1926 73.3178 36.9517 74.407 36.9517 74.9096C36.9517 75.2657 36.9517 75.2657 37.3533 74.5955C37.5741 74.2289 37.9154 73.5901 38.1061 73.1817ZM39.0699 67.6733C39.2104 67.5476 39.1903 67.422 38.9092 66.5737C38.7285 66.0396 38.5579 65.6417 38.5177 65.6731C38.4876 65.715 38.4575 65.9768 38.4575 66.27C38.4575 66.5632 38.4073 66.9821 38.3471 67.2125C38.2668 67.5372 38.2668 67.6419 38.3772 67.7047C38.5679 67.8409 38.8992 67.8199 39.0699 67.6733ZM43.2961 65.2752C43.7278 65.0448 43.7278 65.0238 43.1556 64.6678L42.7741 64.4269V64.961C42.7741 65.2542 42.7942 65.4951 42.8243 65.4951C42.8544 65.4951 43.0652 65.4008 43.2961 65.2752Z" fill="white"/>
<path d="M19.0843 59.3156C15.4102 59.1795 14.6874 59.0853 13.2117 58.4883C11.6055 57.8391 9.29662 55.9959 8.73446 54.9278C8.64411 54.7497 8.4333 54.4461 8.26264 54.2366C7.97152 53.891 7.94141 53.8072 7.94141 53.137C7.94141 52.7286 7.98156 52.3202 8.03175 52.2155C8.08195 52.1212 8.20241 51.8385 8.29276 51.5976C8.39314 51.3463 8.74449 50.8855 9.10588 50.519C9.72827 49.8906 9.73832 49.8906 10.3306 49.8906C10.9831 49.8906 11.0835 49.9639 11.3847 50.6551C11.5754 51.1054 11.5955 51.43 11.455 51.828C11.3245 52.1736 11.4349 52.3935 11.977 52.9066C12.2079 53.1161 12.5994 53.514 12.8704 53.7863C13.3221 54.2471 14.577 55.0849 15.4202 55.4828C15.6411 55.5875 15.9623 55.7446 16.1229 55.8179C16.7955 56.1426 17.2071 56.2054 19.1847 56.2682C21.1623 56.3415 21.2627 56.352 21.8449 56.6452C22.3368 56.8861 22.638 56.9489 23.4712 57.0013C24.475 57.0746 24.5152 57.0851 24.8665 57.4306C25.2179 57.7972 25.2279 57.8076 25.1777 58.4674C25.1075 59.3471 24.987 59.4623 24.1036 59.368C23.0998 59.2738 23.0998 59.2738 22.1963 59.3366C21.7245 59.368 20.3291 59.3575 19.0843 59.3156Z" fill="white"/>
<path d="M24.5029 56.1118C24.1415 55.9129 23.9107 55.8605 23.2682 55.8605C22.5052 55.8605 21.8929 55.672 21.8929 55.4416C21.8929 55.3892 21.7825 55.096 21.652 54.7923C21.5215 54.4886 21.2504 53.8393 21.0396 53.3472C19.9253 50.7081 19.7145 50.2997 18.9717 49.4305C17.8172 48.0796 16.723 47.3675 15.0867 46.8963C14.374 46.6868 14.1632 46.7601 12.3562 47.8806C11.0612 48.687 9.31446 49.64 7.89902 50.3102C7.30674 50.593 6.17239 50.771 5.47972 50.6977C4.53609 50.6034 3.45192 49.8913 3.07046 49.1164C3.01022 48.9907 2.90983 48.8022 2.8496 48.687C2.73917 48.4671 2.6388 48.2158 2.40791 47.5874C2.12683 46.8439 2.28744 44.4876 2.66891 43.5556C2.73918 43.388 2.91988 42.9377 3.06042 42.5712C3.20096 42.2047 3.472 41.6706 3.66273 41.3669C4.10443 40.6757 5.78088 38.9688 6.23262 38.7488C6.42335 38.6546 6.6944 38.508 6.83494 38.4242C7.53764 37.9948 8.32065 38.4556 8.411 39.3458C8.46119 39.7542 8.42104 39.8589 8.08976 40.3197C7.87895 40.6024 7.6079 40.948 7.46736 41.0842C7.1662 41.4088 5.93145 44.0478 5.64033 44.9903C5.35925 45.9328 5.3693 46.5611 5.6805 47.1162C5.811 47.357 6.07199 47.6293 6.24265 47.7236C6.54381 47.8702 6.59401 47.8702 6.93532 47.6817C7.13609 47.5665 7.45732 47.3361 7.64805 47.1581C7.83879 46.98 8.1801 46.7392 8.42103 46.6344C8.65191 46.5297 8.84266 46.3936 8.84266 46.3307C8.84266 46.2784 8.91293 46.226 8.99324 46.226C9.07355 46.226 9.39478 46.0899 9.69594 45.9119C9.9971 45.7443 10.3184 45.5977 10.3886 45.5977C10.4589 45.5977 10.74 45.5034 11.001 45.3778C11.262 45.2521 11.7137 45.116 11.9948 45.0741C12.2759 45.0322 12.8883 44.917 13.3601 44.8123C14.2635 44.6238 15.95 44.6447 17.6265 44.8542C18.0682 44.917 18.7508 44.9903 19.1323 45.0322C19.9956 45.116 20.618 45.5139 21.411 46.4669C22.0033 47.179 22.2643 47.5979 22.7964 48.6661L23.1477 49.3677L23.1778 48.4566C23.208 47.6084 23.1678 47.3256 22.8867 46.3726C22.8365 46.1946 22.7964 45.9433 22.7964 45.7967C22.7964 45.6605 22.7261 45.4511 22.6458 45.3464C22.5655 45.2312 22.4952 44.9798 22.4952 44.7913C22.4952 44.4981 22.5655 44.4039 22.9269 44.163C23.1578 44.0059 23.3886 43.8174 23.4288 43.7441C23.5191 43.587 24.1817 43.5661 24.3925 43.7022C24.533 43.7965 24.6836 44.0583 25.0852 44.917C25.6172 46.048 25.7477 47.0743 25.8983 51.4621C25.9886 54.342 25.9786 54.9075 25.7879 55.8395C25.6775 56.3736 25.6674 56.3841 25.3161 56.3736C25.1153 56.3632 24.7539 56.248 24.5029 56.1118Z" fill="white"/>
<path d="M20.3098 40.0479C19.9584 39.9431 19.4665 39.7127 19.2055 39.5557C18.9445 39.3881 18.6133 39.1891 18.4526 39.0949C17.8704 38.7702 17.0573 37.9115 16.4349 36.9585C15.8627 36.0998 15.7824 35.9113 15.7523 35.4191L15.7221 34.8641L14.8689 34.8013C13.855 34.7384 12.2789 34.529 11.6766 34.3928C11.4457 34.33 11.1345 34.2881 11.004 34.2881C10.8635 34.2881 10.6727 34.2462 10.5723 34.1939C10.482 34.1415 9.9499 33.9216 9.39777 33.7017C8.84565 33.4922 8.1329 33.1781 7.80162 33.0105C7.04873 32.6126 5.66341 31.1883 5.33213 30.4657C4.97074 29.6594 4.94063 29.5756 4.76997 28.6855C4.51901 27.3764 4.44873 26.8424 4.43869 26.2559C4.42865 25.7847 4.47885 25.6485 4.71978 25.3658C4.99082 25.0516 5.06108 25.0202 5.64332 25.0202C6.37614 25.0202 6.82789 25.1877 7.0387 25.5229C7.11901 25.6485 7.21939 26.0884 7.25955 26.4863C7.35993 27.523 7.50048 28.1304 7.7414 28.6017C7.85183 28.8216 7.94217 29.0415 7.94217 29.1044C7.94217 29.1672 8.01244 29.3138 8.09275 29.4185C8.17306 29.5337 8.37382 29.8165 8.5244 30.0469C8.68502 30.2772 9.12672 30.6857 9.50819 30.9475C10.1507 31.3873 10.3716 31.4816 11.4858 31.7853C11.7167 31.8481 11.9777 31.9319 12.058 31.9633C12.1384 31.9947 13.0719 32.0994 14.116 32.1937C15.7322 32.3508 16.0635 32.3508 16.2943 32.2356C16.4449 32.1518 16.6858 32.0889 16.8364 32.0889C17.1677 32.0889 17.5492 31.9633 18.7337 31.4816C20.2797 30.8532 20.9221 30.2773 22.0465 28.5389C22.438 27.9419 22.7692 27.3974 22.7893 27.3345C22.8094 27.2717 22.96 27.0204 23.1106 26.7795C23.2712 26.5387 23.4017 26.3187 23.4017 26.2873C23.4017 26.2559 23.5221 25.9627 23.6627 25.6276C24.1445 24.528 24.2048 24.3604 24.265 24.0358L24.3353 23.7112L23.9036 24.1405C23.1407 24.9155 21.7654 25.7637 20.8619 26.015C20.1492 26.214 19.858 26.2454 18.6835 26.2035C17.1275 26.1407 16.455 25.9313 15.5214 25.1773C14.9191 24.6955 14.8387 24.4652 14.8488 23.3446C14.8689 22.444 15.0295 22.245 15.7924 22.245C16.194 22.245 16.3245 22.2974 16.5252 22.5173C16.6658 22.6744 16.7762 22.8524 16.7762 22.9153C16.7862 23.1456 17.3484 23.7112 17.7801 23.9101C18.543 24.2767 19.1453 24.2033 20.1592 23.6588C20.6411 23.397 21.2133 22.9781 21.4441 22.7372C21.9963 22.1508 22.7994 21.0617 22.7994 20.9046C22.7994 20.8313 22.96 20.559 23.1608 20.2972C23.3515 20.0249 23.5924 19.6374 23.7028 19.428C23.8032 19.2185 24.0743 18.8625 24.3052 18.6321C24.5461 18.4017 24.9878 17.8571 25.299 17.4278C26.0318 16.391 26.604 15.8674 27.4673 15.4276C28.1098 15.0925 28.2503 15.0715 29.3144 15.0296C30.5492 14.9877 30.8905 15.061 31.8943 15.5428C32.5569 15.8569 33.1391 16.4643 33.6712 17.3964C33.882 17.7629 34.0828 17.9828 34.2936 18.0561C34.9762 18.3179 35.709 18.7892 35.9299 19.1138C36.1106 19.3756 36.1507 19.5746 36.1306 20.0354C36.1206 20.36 36.1608 20.7266 36.231 20.8418C36.2913 20.9674 36.3916 21.2502 36.4418 21.4701C36.492 21.7005 36.5924 22.067 36.6526 22.2974C36.7129 22.5278 36.8032 22.9048 36.8534 23.1352C36.9036 23.3656 36.9839 23.7216 37.0442 23.9206C37.1044 24.1196 37.2349 24.6222 37.3353 25.0202C37.4357 25.4286 37.5963 25.8999 37.6866 26.0779C37.8874 26.4863 38.1584 27.8058 38.1584 28.3818C38.1584 29.5232 37.6063 30.1411 35.709 31.1464C34.9059 31.5653 34.7955 31.869 34.8256 33.4818C34.8457 34.3928 34.8156 34.885 34.7353 34.9793C34.5546 35.2097 33.7716 35.1573 33.1793 34.8641C32.4665 34.508 32.2859 34.0473 32.2859 32.5078C32.2859 31.5758 32.316 31.3454 32.5067 30.9894C32.8781 30.2772 33.2596 29.8898 34.0627 29.3976C34.9662 28.8635 35.2472 28.4656 35.2472 27.7744C35.2472 27.523 35.2071 27.2717 35.1569 27.2194C35.1067 27.1565 35.0465 26.8842 35.0164 26.591C34.9561 26.036 34.7353 24.9469 34.6048 24.6013C34.0828 23.2504 33.882 22.7686 33.8117 22.7686C33.6611 22.7686 33.0588 24.4023 32.9283 25.1773C32.7878 25.9732 32.6573 26.5701 32.4967 27.167C32.4063 27.4812 32.2859 28.0467 32.2357 28.4237C32.1855 28.8007 32.0951 29.3138 32.0349 29.5756C31.9747 29.8374 31.8542 30.5181 31.7739 31.0941C31.6133 32.1937 31.292 33.3875 31.0812 33.6598C31.0109 33.7436 30.8704 34.0054 30.76 34.2358C30.4689 34.8536 30.1376 35.4296 29.8665 35.8066C29.736 35.9951 29.6256 36.1731 29.6256 36.215C29.6256 36.414 28.8828 37.4088 28.6017 37.5869C28.421 37.6916 28.0094 37.9848 27.6781 38.2362C26.8951 38.8435 24.8171 39.8908 23.994 40.0897C23.0604 40.3306 21.143 40.2992 20.3098 40.0479ZM23.8534 36.969C24.9677 36.6653 26.0418 35.9218 27.0156 34.7803C27.6982 33.9844 28.1499 33.1571 28.8125 31.513C28.9932 31.0836 29.1237 30.005 29.1237 29.0415C29.1237 28.497 29.1839 27.6801 29.2642 27.2089C29.3445 26.7481 29.4449 26.0255 29.4851 25.5962C29.5252 25.1773 29.6156 24.706 29.6859 24.5594C29.7662 24.4128 29.8264 24.2138 29.8264 24.13C29.8264 23.9834 30.0974 23.3656 30.7399 22.0146C30.9005 21.69 31.031 21.3235 31.031 21.2188C31.031 21.1036 31.1415 20.758 31.272 20.4438L31.5129 19.8678L31.2519 19.5117C30.9106 19.051 30.76 18.9253 30.2882 18.6949C30.0673 18.5797 29.8164 18.5274 29.6859 18.5692C28.4411 18.9567 27.8187 19.9935 27.7082 21.8261C27.5878 23.8159 27.4171 24.7479 27.0256 25.5962C26.9152 25.8475 26.8148 26.1302 26.8148 26.2245C26.8148 26.4339 26.2426 27.5754 25.7306 28.4132C25.5299 28.7378 25.299 29.1253 25.2086 29.2824C25.1283 29.4395 24.6967 29.9631 24.255 30.4448C23.8133 30.937 23.231 31.6072 22.9499 31.9423C21.9461 33.1571 21.5445 33.576 21.0526 33.953C20.7716 34.1625 20.5306 34.3719 20.5106 34.4138C20.4905 34.4661 20.4202 34.4976 20.36 34.4976C20.2897 34.4976 20.109 34.6023 19.9584 34.7384L19.6774 34.9688L19.9082 35.2097C20.8519 36.1731 21.5144 36.613 22.5484 36.9585C23.0804 37.1366 23.2511 37.1366 23.8534 36.969Z" fill="white"/>
<path d="M49.2794 32.6338C49.0285 32.4767 48.9984 32.4034 48.9984 31.8588C48.9984 31.5342 49.0486 31.2305 49.0987 31.1991C49.159 31.1677 49.1991 31.0001 49.1991 30.8325C49.1991 30.665 49.2393 30.4241 49.2895 30.288C49.3397 30.1518 49.44 29.8377 49.5102 29.5759C49.5905 29.3141 49.7512 28.8847 49.8716 28.6124C50.0021 28.3297 50.1026 28.0574 50.1026 27.9946C50.1026 27.9317 50.193 27.7013 50.3034 27.4919C50.5142 27.073 50.7752 26.2876 50.9057 25.6488C50.9559 25.4184 51.0462 25.0414 51.1065 24.811C51.237 24.3083 51.3675 23.4601 51.508 22.2139C51.759 20.0147 51.1567 18.5695 49.681 17.8155C48.5868 17.2605 48.2856 17.1977 47.0408 17.2605C43.186 17.4595 43.2061 17.4595 42.8146 17.2186C42.5837 17.0615 42.4431 16.8835 42.403 16.6845C42.3729 16.517 42.3026 16.3494 42.2625 16.318C42.1219 16.2342 42.1621 14.7995 42.3126 14.3387C42.3829 14.1083 42.4833 13.5638 42.5235 13.1344C42.5837 12.4223 42.6439 12.1919 43.0053 11.3541C43.0756 11.2075 43.2662 10.9038 43.4469 10.663C43.738 10.286 43.8486 10.2231 44.4107 10.1184C45.1937 9.9718 45.6254 9.96133 45.8663 10.087C45.9567 10.1498 46.1574 10.2127 46.298 10.2441C46.7899 10.3488 47.0709 10.7782 47.1412 11.5112C47.2215 12.2862 47.1513 12.7993 46.8802 13.3858C46.7798 13.6162 46.6895 13.8361 46.6895 13.8779C46.6895 13.9198 47.0609 13.9827 47.5227 14.0141C47.9744 14.056 48.5566 14.1083 48.8075 14.1398L49.2693 14.1921L49.3296 13.7418C49.3999 13.1763 49.6608 12.9564 50.6145 12.6318C52.5218 11.9825 53.9474 11.9406 55.8246 12.4851C57.1798 12.8726 57.9428 13.7104 58.5953 15.5011C59.1574 17.0196 58.9968 20.4545 58.3242 21.4808C58.1536 21.7322 57.9829 21.9311 57.9327 21.9311C57.8825 21.9311 57.5713 22.2977 57.2601 22.748C56.9389 23.1878 56.447 23.8476 56.1659 24.2036C55.8447 24.6225 55.5937 25.0833 55.4733 25.4603C55.3829 25.7954 55.2323 26.2248 55.152 26.4237L55.0115 26.7798L54.3288 26.7169L53.6462 26.6541L53.4455 27.094C53.335 27.3348 53.1442 27.7432 53.0237 28.005C52.9033 28.2668 52.7428 28.5915 52.6625 28.7381C52.3312 29.335 51.9096 30.2461 51.9096 30.3718C51.9096 30.4346 51.8492 30.5498 51.7689 30.6126C51.6986 30.6755 51.5482 30.9582 51.4578 31.2305C51.1667 32.0054 50.6547 32.6757 50.2933 32.7594C49.8014 32.8537 49.5706 32.8327 49.2794 32.6338ZM55.2423 20.3393C55.4932 19.8052 55.7945 19.0722 55.915 18.7161L56.1358 18.0564L55.9049 17.3547C55.5636 16.2866 54.8106 15.3441 54.0376 15.0194C53.7164 14.8833 52.3712 14.9252 52.2307 15.0718C52.1905 15.1032 52.3211 15.2603 52.5119 15.4174C53.2848 16.0352 54.0076 16.9568 54.1984 17.5851C54.2686 17.8155 54.369 18.0983 54.4092 18.2135C54.5899 18.6638 54.7204 19.5748 54.7204 20.4231C54.7204 20.9049 54.7404 21.3028 54.7605 21.3028C54.7806 21.3028 55.0014 20.863 55.2423 20.3393Z" fill="white"/>
<path d="M44.7321 31.0328C43.427 30.8338 41.9714 29.8285 41.2687 28.6347L40.8672 27.954V26.624C40.8672 25.1369 41.0178 24.3411 41.4795 23.3985C41.6402 23.0634 41.7707 22.7388 41.7707 22.676C41.7707 22.6131 41.8108 22.477 41.861 22.3723C41.9012 22.278 42.112 21.8172 42.3228 21.3565C43.0857 19.6704 43.3066 19.2515 43.6579 18.864C44.0193 18.4766 44.0294 18.4766 44.7923 18.4766C45.8062 18.4766 46.027 18.5813 46.288 19.1154C46.5591 19.7123 46.549 20.2673 46.2479 20.77C46.1073 20.9899 45.9066 21.4088 45.7861 21.6811C45.6656 21.9639 45.3043 22.7702 44.973 23.4719C44.3305 24.8542 43.929 26.1946 44.0394 26.5716C44.1097 26.823 44.4711 27.2733 44.5915 27.2733C44.6317 27.2733 45.0633 27.0743 45.5552 26.8334C46.2981 26.4774 46.5892 26.3936 47.3722 26.3098C48.4765 26.2051 49.0185 26.3203 49.2695 26.7078C49.4 26.9277 49.4201 27.1476 49.3699 27.9959C49.2996 29.2002 49.139 29.5562 48.4463 30.1008C48.1954 30.2893 47.9946 30.4883 47.9946 30.5301C47.9946 30.5825 47.7938 30.7396 47.5629 30.8862C47.1714 31.1166 47.0209 31.148 46.2278 31.1375C45.7359 31.1271 45.0633 31.0852 44.7321 31.0328Z" fill="white"/>
</g>
<defs>
<clipPath id="clip0_855_1705">
<rect width="78" height="119.069" fill="white" transform="translate(0 10)"/>
</clipPath>
</defs>
</svg>
