<svg width="120" height="199" viewBox="0 0 120 199" fill="none" xmlns="http://www.w3.org/2000/svg">
<g clip-path="url(#clip0_855_1720)">
<path d="M54.1609 173.155C54.1609 173.095 54.0914 173.034 53.9987 173.034C53.825 173.034 53.6976 172.779 53.6976 172.427C53.6976 172.306 53.5933 172.184 53.4659 172.148C53.1532 172.063 53.0605 171.541 53.2342 170.776C53.3501 170.291 53.4427 170.121 53.5933 170.121C53.8366 170.121 53.8829 169.927 54.0451 167.876C54.1146 167.014 54.2767 165.849 54.4041 165.29C54.6474 164.234 54.6242 163.7 54.3115 163.421C53.8945 163.057 52.3308 165.509 51.9022 167.22C51.4852 168.895 51.0914 170.072 50.8366 170.436C50.686 170.643 50.5702 170.873 50.5702 170.946C50.5702 171.031 50.5238 171.092 50.4543 171.092C50.3964 171.092 50.3385 171.189 50.3385 171.31C50.3385 172.002 49.4003 172.172 45.1493 172.269C41.8829 172.342 41.9408 172.342 41.0142 171.844C40.5856 171.614 40.435 171.42 40.1454 170.788C39.879 170.218 39.8443 169.271 40.0759 168.798C40.3539 168.252 41.5817 167.511 43.0412 167.026C44.8597 166.419 46.4466 165.339 46.9331 164.392C47.0605 164.137 47.1879 164.052 47.4427 164.052C47.6512 164.052 47.9292 163.919 48.1609 163.712C48.3694 163.518 48.7516 163.239 48.9949 163.081C49.2497 162.924 49.7246 162.547 50.0373 162.244C50.6628 161.661 52.4582 160.399 54.2767 159.27C55.5045 158.506 56.4775 157.777 56.5933 157.498C56.6396 157.401 56.7555 157.158 56.8366 156.976C56.9756 156.661 57.0335 156.637 57.5663 156.673L58.157 156.709L58.1339 159.282C58.1107 161.807 58.1107 161.868 57.7516 162.984C57.5547 163.603 57.2651 164.344 57.1146 164.611C56.964 164.89 56.7786 165.351 56.6976 165.642C56.4196 166.82 55.8983 169.223 55.8983 169.393C55.8983 169.502 56.0721 169.66 56.3037 169.745C56.6744 169.878 56.7091 169.939 56.7091 170.376C56.7091 170.849 56.3501 171.82 56.0952 172.051C56.0142 172.111 55.8288 172.184 55.6667 172.209C55.5045 172.233 55.3655 172.342 55.3192 172.488C55.1918 173.01 54.9254 173.277 54.5431 173.277C54.3346 173.277 54.1609 173.228 54.1609 173.155Z" fill="#4F649B"/>
<path d="M63.7414 159.475C63.6371 159.342 63.5445 159.148 63.5445 159.051C63.5445 158.808 63.3244 158.626 62.9653 158.565C62.6062 158.517 62.0387 157.424 62.0387 156.793C62.0387 156.429 62.085 156.368 62.4904 156.198C63.0232 155.98 63.0116 156.053 62.5599 153.856C62.1545 151.987 62.1082 151.793 61.7491 151.064C61.3089 150.154 60.892 148.953 60.753 148.224C60.695 147.885 60.614 146.586 60.5908 145.336C60.5329 142.775 60.5445 142.775 61.3669 142.835C61.8186 142.872 61.8765 142.908 61.9923 143.297C62.1313 143.758 62.8379 144.401 63.973 145.117C66.0927 146.44 68.3167 147.969 68.8842 148.503C69.6371 149.207 71.3398 150.336 71.6526 150.336C71.7684 150.336 72.0811 150.615 72.3475 150.979C72.8456 151.635 74.2472 152.715 74.7684 152.836C74.9306 152.885 75.1738 152.982 75.3012 153.055C75.4286 153.14 75.7645 153.273 76.0541 153.358C76.7954 153.589 77.7916 154.147 78.2896 154.633L78.7182 155.045V156.441V157.849L78.2317 158.189C77.224 158.893 77.3514 158.881 74.1198 158.796C69.6835 158.674 68.641 158.492 68.641 157.873C68.641 157.752 68.5599 157.618 68.4672 157.57C68.3746 157.533 68.2935 157.4 68.2935 157.279C68.2935 157.157 68.1892 156.951 68.0734 156.842C67.8418 156.623 67.3321 155.045 67.0657 153.759C66.9846 153.346 66.7877 152.739 66.6371 152.424C66.4865 152.108 66.2549 151.635 66.1391 151.38C66.0116 151.113 65.6526 150.603 65.3282 150.227C64.807 149.644 64.7028 149.572 64.5522 149.717C64.2279 149.984 64.2047 150.603 64.4479 151.683C64.5754 152.242 64.7375 153.419 64.8186 154.281C64.9808 156.259 65.0271 156.526 65.2356 156.526C65.3167 156.526 65.4788 156.72 65.5715 156.963C65.8726 157.728 65.7452 158.711 65.3398 158.711C65.2356 158.711 65.1661 158.82 65.1661 158.99C65.1661 159.427 64.9923 159.585 64.4595 159.645C64.0541 159.694 63.9035 159.657 63.7414 159.475Z" fill="#4F649B"/>
<path d="M15.2203 159.307C14.8612 159.1 14.9539 158.166 15.4056 157.122C15.6257 156.624 15.8921 155.848 16.0079 155.374C16.3554 153.881 16.8651 152.17 16.9809 152.097C17.0504 152.061 17.0967 151.794 17.0967 151.502C17.0967 150.726 17.4095 149.925 17.9654 149.269C18.2318 148.954 18.5098 148.505 18.5793 148.274C18.6373 148.043 19.089 146.805 19.5755 145.519C20.062 144.232 20.4558 143.043 20.4558 142.873C20.4558 142.679 20.6411 142.363 21.0118 141.975C21.5446 141.404 21.5793 141.38 22.5407 141.234C23.838 141.04 26.421 141.113 26.8844 141.356C27.1971 141.526 27.2435 141.611 27.3014 142.266L27.3709 142.994L27.3825 142.254C27.4056 141.647 27.4635 141.429 27.7531 141.016C27.9385 140.737 28.1933 140.458 28.3207 140.397C28.6913 140.191 30.1392 140.227 30.3477 140.458C30.5446 140.664 30.6025 141.477 30.4288 141.671C30.2898 141.805 29.9307 142.691 30.0002 142.691C30.035 142.691 30.3014 142.205 30.591 141.623C31.2049 140.397 32.2473 139.098 32.8149 138.855C33.3593 138.613 34.6798 138.637 35.1315 138.904C36.0813 139.45 36.9732 140.518 37.2859 141.429C37.367 141.708 37.6218 142.157 37.8419 142.448C38.2126 142.934 38.2357 143.019 38.2242 143.832C38.201 145.968 37.4829 146.817 35.7222 146.817C35.0273 146.817 34.8188 146.769 34.6682 146.599C34.3554 146.235 34.4249 145.555 34.8883 144.633L35.3168 143.783L35.1199 143.237C34.8883 142.63 33.9964 141.635 33.5562 141.514C33.3361 141.453 33.2203 141.514 33.0118 141.781C32.757 142.12 32.6527 142.339 32.1199 143.722C31.9578 144.123 31.5639 145.07 31.228 145.834C30.9037 146.587 30.533 147.655 30.4172 148.201C30.1856 149.306 30.1392 149.439 29.5948 150.641C29.2821 151.333 29.201 151.636 29.201 152.303C29.201 152.995 29.2358 153.153 29.4906 153.432C29.9886 153.991 30.1045 154.003 30.8574 153.614C31.5639 153.238 32.6759 152.206 33.2551 151.405L33.5678 150.944H33.2087C33.0118 150.944 32.6527 151.029 32.4211 151.126C32.201 151.223 31.7724 151.308 31.4944 151.308H30.9732L31.0195 150.604C31.0543 150.046 31.1585 149.767 31.4944 149.221C32.0041 148.432 32.2242 148.322 33.4867 148.225C33.9964 148.189 34.8072 148.043 35.2821 147.898C35.757 147.752 36.4867 147.606 36.9037 147.558L37.6566 147.485L38.2589 145.968C38.5948 145.13 38.9423 144.038 39.0466 143.54C39.6373 140.555 40.089 139.426 41.1778 138.176C41.4211 137.884 41.5601 137.836 42.0581 137.836C42.7415 137.836 42.9616 138.018 43.1006 138.686C43.1469 138.916 43.4944 139.523 43.8651 140.045L44.5485 140.979V142.072C44.5485 142.897 44.5022 143.188 44.3863 143.261C44.2937 143.31 44.0157 143.82 43.7608 144.39C43.5176 144.96 43.1701 145.604 42.9964 145.822L42.672 146.211H43.0311C43.5871 146.211 43.7377 146.563 43.7377 147.825V148.893L43.0427 149.767C42.6605 150.252 42.0581 151.053 41.7107 151.551C40.8188 152.825 38.9423 154.925 38.1547 155.52C37.1585 156.284 36.4983 156.564 35.5601 156.624C34.5524 156.685 34.3554 156.539 34.3554 155.702C34.3554 155.144 34.7145 153.784 35.1083 152.838C35.3052 152.364 35.3052 152.364 34.6798 153.068C34.3439 153.457 33.4751 154.245 32.7454 154.816C32.0157 155.386 31.1817 156.042 30.9037 156.272C30.0581 156.928 29.5369 157.134 28.5755 157.134C27.5215 157.134 27.0697 156.891 26.6991 156.078C26.479 155.593 26.4326 155.265 26.3863 153.651L26.3284 151.794L25.9114 152.789C25.6681 153.347 25.2859 154.136 25.0542 154.561C24.8226 154.986 24.6257 155.35 24.6257 155.374C24.6257 155.398 24.4519 155.811 24.2318 156.309C23.6759 157.534 23.3052 157.886 22.4828 157.959C21.95 158.008 21.811 157.971 21.672 157.789C21.3824 157.389 21.4635 156.43 21.8457 155.617C22.0311 155.216 22.1932 154.828 22.1932 154.755C22.1932 154.682 22.3554 154.391 22.5407 154.112C23.0156 153.432 24.0118 151.527 24.4519 150.459C24.5793 150.155 24.9732 149.391 25.3206 148.759C26.201 147.206 26.8265 145.713 26.8265 145.179C26.8265 145.094 26.3052 145.579 25.6566 146.271C24.3824 147.643 22.9693 148.772 21.6141 149.488C20.4326 150.119 19.9809 150.58 19.367 151.794C18.4983 153.517 18.0234 154.998 17.8033 156.709C17.6411 157.911 17.2241 158.857 16.7029 159.185C16.2859 159.452 15.5562 159.513 15.2203 159.307ZM38.8496 151.672C39.7068 150.762 40.5408 149.524 40.9114 148.638C40.9809 148.468 41.0736 148.031 41.1199 147.667C41.1778 147.254 41.2937 146.902 41.4442 146.733L41.6875 146.453H41.0388C40.4481 146.453 40.367 146.49 40.1469 146.83C40.0079 147.024 39.7995 147.449 39.6836 147.764C38.9886 149.718 38.6759 150.41 37.645 152.352C37.4249 152.753 37.2512 153.141 37.2512 153.189C37.2512 153.335 37.7493 152.862 38.8496 151.672ZM22.7145 146.162C23.6874 145.385 25.089 144.062 25.089 143.917C25.089 143.747 24.2666 143.419 23.8728 143.419C23.1662 143.419 22.8998 143.65 22.4249 144.633C22.1817 145.143 21.7994 145.883 21.5678 146.283C20.8264 147.57 20.9539 147.558 22.7145 146.162ZM41.7222 143.929C41.7917 143.88 41.9655 143.662 42.0929 143.431C42.313 143.055 42.313 142.982 42.1624 142.582C42.0813 142.339 41.9539 141.841 41.9076 141.477L41.8033 140.81L41.6643 141.174C41.5832 141.38 41.4095 142.023 41.2821 142.618C41.0388 143.662 41.0388 143.698 41.2473 143.856C41.4906 144.05 41.5485 144.062 41.7222 143.929Z" fill="#4F649B"/>
<path d="M46.1247 159.124C45.9857 158.76 46.0552 157.971 46.2985 157.097C47.005 154.5 47.1208 153.832 47.0398 152.703C46.9239 151.004 46.449 148.273 46.2637 148.273C46.2174 148.273 46.171 148.358 46.171 148.468C46.171 148.747 44.7463 152.145 44.1208 153.371C43.2405 155.094 42.2328 156.332 41.5378 156.527C41.0166 156.684 40.1363 156.684 39.7425 156.527C39.4761 156.417 39.4413 156.345 39.4761 155.895C39.5108 155.434 39.5687 155.337 40.171 154.852C40.8313 154.33 41.283 153.735 42.0707 152.339C42.4529 151.672 42.6498 151.308 43.4606 149.778C44.0513 148.662 44.3062 147.703 44.4336 146.052C44.7232 142.375 44.7347 142.326 45.2444 141.112C45.8467 139.656 46.0552 138.988 46.0552 138.43C46.0552 138.175 46.171 137.823 46.3216 137.58C46.5533 137.216 46.6459 137.168 47.1788 137.131C47.7 137.095 47.8158 137.144 48.1749 137.471C48.4066 137.678 48.8583 137.932 49.1942 138.03C50.0166 138.284 50.2598 138.466 50.8622 139.316C51.3139 139.947 51.3834 140.129 51.3834 140.627C51.3834 141.379 50.9896 142.447 50.5494 142.921C50.2019 143.285 49.2985 143.661 48.7541 143.661C48.395 143.661 47.4568 143.904 47.3873 144.025C47.3641 144.074 47.5147 144.681 47.7232 145.373C47.9432 146.064 48.256 147.181 48.4181 147.849C48.5919 148.516 48.8004 149.366 48.893 149.73C49.1015 150.531 49.2869 151.635 49.4259 152.946C49.4838 153.48 49.5533 154.148 49.5996 154.439C49.7386 155.422 48.6266 158.08 47.6537 159.1C47.3757 159.391 46.229 159.415 46.1247 159.124ZM48.3718 140.712C48.4876 140.675 48.4181 140.578 48.1402 140.408C47.9201 140.263 47.7 140.141 47.6652 140.141C47.6073 140.141 47.2135 140.93 47.2135 141.052C47.2135 141.076 47.4336 141.027 47.7116 140.93C47.978 140.845 48.2791 140.748 48.3718 140.712Z" fill="#4F649B"/>
<path d="M75.3958 142.946C74.7703 142.533 74.1217 141.757 73.2182 140.337C72.0599 138.504 71.3765 137.035 71.0174 135.591C70.1603 132.241 71.0522 126.039 72.9286 122.179C73.3688 121.281 73.9942 119.363 74.2143 118.259C74.724 115.662 74.2027 109.107 73.2761 106.462C73.1371 106.061 72.9402 105.515 72.8475 105.26C72.6506 104.69 72.0715 103.354 71.7587 102.76C71.6429 102.529 71.4112 102.032 71.2491 101.667C71.0869 101.303 70.8437 100.781 70.7163 100.502C70.4846 100.029 70.4846 99.8468 70.5309 97.2252C70.5657 95.6959 70.6583 94.0938 70.7394 93.6568C70.8668 92.9286 70.8784 91.9212 70.8321 88.6806C70.8205 87.9766 70.8668 87.0542 70.9363 86.6173C71.1564 85.2822 71.3186 83.0732 71.2375 82.4299L71.168 81.8109L70.4035 81.8473C69.9749 81.8716 69.3147 81.9444 68.9209 82.0051C67.7973 82.1993 63.2915 81.7017 62.7124 81.3254C62.6313 81.2647 62.307 81.1919 61.9827 81.1434C61.6583 81.0948 61.0097 80.8642 60.5348 80.6215C60.0599 80.3787 59.6081 80.1845 59.5271 80.1845C59.446 80.1845 59.3417 80.3302 59.307 80.5244C59.2607 80.7064 59.1564 81.1555 59.0637 81.5196C58.9711 81.8837 58.8552 82.4178 58.8089 82.6848C58.7626 82.964 58.612 83.3766 58.4846 83.6072C58.3456 83.85 58.2066 84.2262 58.1603 84.4447C58.1139 84.6632 57.9634 85.0394 57.8244 85.2822C57.6854 85.5128 57.4769 85.9254 57.361 86.1925C56.6545 87.8188 56.1217 88.899 55.9711 89.0326C55.8668 89.1297 55.7857 89.2632 55.7857 89.336C55.7857 89.4574 55.4846 89.9064 54.4074 91.4114C54.222 91.6785 54.0251 91.994 53.9788 92.1154C53.944 92.2246 53.4112 92.5645 52.7973 92.8801C52.195 93.1835 51.4653 93.5961 51.1989 93.8025C50.7471 94.1423 50.6429 94.1666 50.0869 94.1059C49.0792 93.9967 48.8359 93.851 48.8359 93.3655C48.8359 93.1349 48.8939 92.9043 48.9518 92.8679C49.334 92.6252 51.778 88.3407 53.0058 85.7677C53.3417 85.0637 53.7356 84.2384 53.8861 83.9349C54.0367 83.6194 54.1641 83.2674 54.1641 83.1339C54.1641 83.0125 54.222 82.8426 54.28 82.7819C54.6043 82.4421 55.3224 79.9661 55.3224 79.1772C55.3224 78.9101 55.3919 78.5582 55.4846 78.3882C55.5773 78.2062 55.7047 77.8178 55.7857 77.5144C55.9942 76.7133 56.0985 76.5191 56.5734 76.1429C56.9788 75.8151 57.0483 75.803 58.056 75.8394C59.0637 75.8758 59.1217 75.888 59.4691 76.2642C59.6776 76.4706 59.9788 76.7254 60.1641 76.8225C60.3379 76.9196 60.6854 77.1138 60.9402 77.2473C62.3417 78.0241 63.3031 78.364 65.7819 78.9587C66.6506 79.165 69.7664 79.1286 70.6352 78.898C71.7819 78.5946 71.7703 78.5946 71.7703 77.6357C71.7703 77.1745 71.8166 76.5555 71.8861 76.2764C71.944 75.9851 72.0599 75.4268 72.1294 75.0262C72.3147 74.1038 72.8128 72.9144 73.1718 72.5866C74.0753 71.7492 74.2722 71.6885 75.8244 71.6885C77.0869 71.6885 77.3417 71.7249 77.7935 71.9677C78.5464 72.356 79.4962 73.0357 80.2491 73.7397C80.6081 74.0795 80.9325 74.3587 80.9788 74.3587C81.1178 74.3587 82.8089 73.0357 84.0251 71.9919C84.6506 71.4579 85.4035 70.8025 85.7163 70.5355C86.029 70.2806 86.4112 69.9529 86.5502 69.8072C87.0599 69.3217 87.4769 68.9455 88.2529 68.3022C88.6815 67.9502 89.0753 67.574 89.1332 67.4526C89.1912 67.3434 89.5271 67.1006 89.8861 66.9186C90.28 66.7122 90.8012 66.2632 91.2529 65.7534C92.5734 64.2605 94.3108 62.8769 96.2105 61.821C98.7819 60.3888 99.4421 60.1339 101.539 59.794C103.288 59.5027 103.878 59.4906 104.319 59.7334C104.759 59.9761 104.898 60.2553 104.898 60.9228C104.898 61.3233 104.828 61.5418 104.608 61.7845C104.446 61.9666 104.319 62.1729 104.319 62.2458C104.319 62.5128 103.902 62.6948 103.322 62.707C102.998 62.707 102.477 62.7798 102.164 62.8769C101.851 62.974 101.376 63.0832 101.098 63.1196C100.577 63.2046 98.6197 64.2241 97.9479 64.7703C97.7278 64.9523 97.4151 65.1708 97.2645 65.2558C96.9749 65.4136 95.4228 66.87 93.8359 68.4843C92.9788 69.346 92.0869 70.1471 91.1139 70.936C90.8939 71.118 90.3958 71.5793 90.002 71.9677C89.6197 72.3439 89.2491 72.6595 89.1912 72.6716C89.1332 72.6716 88.8552 72.8537 88.5657 73.0843C88.2761 73.3149 87.5811 73.8125 87.002 74.1888C86.4344 74.5772 85.8321 74.9898 85.6699 75.1112C85.5078 75.2447 85.0328 75.5967 84.6043 75.9244L83.8166 76.4948L84.5927 77.1988C85.0097 77.575 85.612 78.0241 85.9132 78.1819C86.2143 78.3518 86.5039 78.546 86.5386 78.6188C86.585 78.6917 87.2568 79.0679 88.0329 79.4563C89.5039 80.2088 90.6159 80.5122 92.446 80.6336C94.0213 80.7429 94.8321 80.051 95.5155 77.9998C95.5966 77.7692 95.8051 77.2473 95.9788 76.8468C96.4884 75.7059 96.9749 74.2616 97.1371 73.3877C97.195 73.0843 97.3688 72.3803 97.5425 71.8099C97.7163 71.2394 97.9363 70.4262 98.029 69.9893C98.2027 69.2368 98.3302 68.8241 98.5386 68.3872C98.585 68.2779 98.6661 67.9017 98.7124 67.5376C98.7471 67.1856 98.8745 66.6516 98.9904 66.3481C99.1062 66.0447 99.2568 65.5592 99.3495 65.2558C99.5116 64.6489 99.7549 64.2848 99.9981 64.2848C100.091 64.2848 100.357 64.1513 100.589 63.9814C100.925 63.7386 101.156 63.6779 101.736 63.6779C102.616 63.6779 102.743 63.8479 102.674 64.8917C102.627 65.5228 102.222 66.6394 101.979 66.8458C101.921 66.8822 101.805 67.2099 101.712 67.574C101.539 68.2051 101.388 68.6056 101.18 69.0426C101.122 69.164 101.075 69.3824 101.075 69.5281C101.075 69.8436 100.682 71.2516 100.369 72.0647C100.253 72.3803 100.114 72.9508 100.079 73.3392C100.033 73.7397 99.9054 74.2859 99.778 74.5771C99.6622 74.8684 99.5695 75.2326 99.5695 75.3903C99.5695 75.5481 99.5232 75.7059 99.4653 75.7423C99.419 75.7787 99.3031 76.2278 99.222 76.7497C99.1525 77.2595 99.002 77.8056 98.9093 77.9634C98.805 78.1212 98.6892 78.4853 98.6313 78.7645C98.585 79.0436 98.3302 79.7597 98.0637 80.3545C97.4035 81.8473 96.5695 82.964 95.4692 83.85C94.7626 84.4204 94.1487 84.5054 90.9981 84.4568C89.0058 84.4204 88.5078 84.3719 87.9286 84.1655C87.5464 84.032 87.1873 83.8742 87.1294 83.8136C87.0599 83.7529 86.9209 83.7043 86.8166 83.7043C86.5734 83.7043 86.0406 83.3888 84.9286 82.6241C84.5 82.3207 83.9093 81.9323 83.6429 81.7624C83.3649 81.5925 82.9132 81.2526 82.6352 80.9977C82.3572 80.7307 81.8012 80.2938 81.3842 80.0268L80.6313 79.517L78.4074 80.7064C76.4614 81.7381 75.6738 82.0779 74.5734 82.3328C74.1332 82.4421 74.0058 82.8304 73.9247 84.3112C73.8784 85.0758 73.751 86.8236 73.6236 88.1951C73.4962 89.5666 73.3919 91.4479 73.3919 92.3824C73.3919 93.317 73.334 94.7977 73.2529 95.6837C73.1255 97.213 73.1371 97.3223 73.3803 98.1719C74.0869 100.551 74.5386 101.631 75.419 103.124C75.5579 103.354 75.7201 103.682 75.7664 103.852C75.8128 104.022 75.9518 104.35 76.0676 104.58C76.89 106.219 77.446 110.018 77.446 113.987C77.446 115.734 77.3996 116.596 77.2722 117.082C77.1796 117.446 77.0985 117.919 77.0985 118.138C77.0985 118.575 76.5425 120.286 75.9981 121.512C75.3958 122.883 75.2568 123.211 74.8861 124.145C73.056 128.758 72.7433 130.736 73.3803 133.71C73.6236 134.899 74.8861 137.302 75.8128 138.395C76.4962 139.183 76.9479 139.79 77.4807 140.616C77.8745 141.21 77.9093 141.332 77.9093 142.096C77.9093 142.545 77.863 142.946 77.8051 142.982C77.7471 143.019 77.2722 143.08 76.7394 143.128C75.8939 143.189 75.7201 143.164 75.3958 142.946ZM75.6969 77.3808C76.4267 77.1138 77.3301 76.6526 77.3301 76.5434C77.3301 76.507 77.1796 76.2885 77.0058 76.0579C76.7162 75.7059 76.6004 75.6574 76.1603 75.6574C75.5232 75.6574 74.8977 76.0822 74.8977 76.4948C74.8977 76.6526 74.8514 76.8104 74.7819 76.8468C74.724 76.8832 74.6661 77.1138 74.6661 77.3566C74.6661 77.7085 74.7008 77.7692 74.8745 77.6964C74.9788 77.6479 75.3495 77.5022 75.6969 77.3808Z" fill="#4F649B"/>
<path d="M25.6319 136.172C25.5855 136.136 25.5508 135.82 25.5508 135.468C25.5508 134.922 25.6434 134.679 26.3268 133.453C27.2535 131.791 27.8443 130.577 28.6087 128.793C29.408 126.948 31.3655 122.93 32.0721 121.692C32.3964 121.122 32.8945 120.37 33.1609 120.018C33.4389 119.653 33.6589 119.326 33.6589 119.265C33.6589 119.217 33.9833 118.949 34.3771 118.67C34.9446 118.27 35.1879 118.173 35.5122 118.197C35.8945 118.233 35.9176 118.258 35.9524 118.743C35.9755 119.132 35.906 119.399 35.686 119.811C35.3501 120.406 34.9331 121.692 34.9331 122.178C34.9331 122.348 34.8288 122.773 34.713 123.125C34.5972 123.465 34.5161 123.756 34.5277 123.756C34.5392 123.756 34.7246 123.501 34.9331 123.185C35.1531 122.858 35.767 122.02 36.3114 121.304C36.8674 120.588 37.5392 119.52 37.8288 118.937C38.4427 117.687 38.8134 117.42 39.9717 117.396L40.6667 117.384L40.6435 117.93C40.5624 119.447 40.4118 120.928 40.296 121.146C40.2381 121.28 40.0412 121.911 39.8674 122.542C39.6937 123.173 39.3809 124.023 39.1724 124.423C37.6667 127.263 37.0064 129.46 37.0412 131.524C37.0412 131.888 37.0759 132.058 37.0991 131.888C37.5392 129.036 37.7941 127.98 38.3037 126.766C38.8597 125.443 39.4041 124.581 40.7825 122.846C41.8134 121.559 42.5431 120.418 42.9485 119.484C43.1686 118.986 43.8636 117.954 44.408 117.347C44.8481 116.85 45.6242 116.486 46.2381 116.474C46.6435 116.474 46.7593 116.534 47.0605 116.935C47.2574 117.177 47.4427 117.578 47.4775 117.809C47.5006 118.039 47.6165 118.452 47.7091 118.719C47.8018 118.986 47.9176 119.811 47.964 120.539L48.0566 121.875L48.2188 121.389C48.5779 120.309 48.7169 119.253 48.6474 118.124L48.5779 117.02L48.9601 116.413C49.5856 115.442 50.9987 114.896 52.4118 115.078C54.5084 115.357 55.1223 116.838 54.6242 120.467C54.1724 123.683 53.3616 126.062 52.0759 127.882C51.2072 129.096 49.3887 130.795 47.7786 131.863C46.0064 133.053 45.5779 133.284 44.8018 133.453C43.4466 133.757 42.9253 133.587 42.9253 132.859C42.9253 132.446 43.0064 132.313 43.6782 131.633C44.547 130.771 45.1261 129.885 45.1261 129.436C45.1261 129.266 45.4273 128.501 45.7979 127.749C46.3308 126.644 47.3269 123.95 47.3269 123.598C47.3269 123.562 47.0373 123.671 46.6782 123.841C46.0759 124.12 45.9485 124.144 44.9176 124.071C44.2921 124.035 43.5856 123.974 43.3307 123.926C42.8906 123.865 42.8443 123.889 42.4852 124.351C42.1493 124.787 41.3385 126.28 40.2033 128.55C39.7632 129.424 39.3346 131.038 39.5431 131.038C39.6589 131.038 41.7786 128.732 42.6937 127.628C43.0528 127.191 43.5161 126.462 43.7246 126.001C43.9446 125.528 44.1879 125.018 44.269 124.848C44.4659 124.436 44.8481 124.241 45.4968 124.241C46.2265 124.241 46.4002 124.448 46.4002 125.285C46.4002 126.147 46.2265 126.487 45.1725 127.664C44.6975 128.186 44.2226 128.768 44.1184 128.951C44.0026 129.133 43.6319 129.667 43.2728 130.128C42.9253 130.601 42.3809 131.354 42.0682 131.803C41.408 132.786 40.6898 133.514 39.8674 134.012C39.3462 134.327 39.1724 134.376 38.3732 134.376C37.2728 134.376 37.1918 134.291 37.0643 133.126L36.9833 132.313L36.8443 132.737C36.5894 133.514 36.103 134.412 35.8365 134.606C35.686 134.716 35.3385 134.801 35.0373 134.801C34.2728 134.801 34.1223 134.534 34.1223 133.101C34.1223 132.094 34.157 131.936 34.5277 131.172C34.7477 130.71 35.0026 130.019 35.0952 129.63C35.6744 127.276 35.8829 126.596 36.3694 125.358C36.6589 124.605 36.9022 123.926 36.9022 123.841C36.9022 123.501 34.6435 127.385 33.5199 129.667C32.8829 130.965 32.7323 131.378 32.7323 131.827C32.7323 132.385 32.5817 132.834 32.3385 133.004C32.269 133.053 31.9446 133.101 31.6203 133.101C31.1802 133.101 31.0064 133.053 30.9485 132.907C30.8095 132.531 30.879 130.128 31.0643 129.12C31.157 128.562 31.2149 128.077 31.1918 128.052C31.0991 127.943 29.3037 131.329 28.6551 132.859C28.2844 133.708 27.0566 135.699 26.686 136.051C26.4543 136.257 25.7824 136.342 25.6319 136.172ZM51.1493 125.516C52.1338 124.132 52.5856 122.906 52.8867 120.843C53.13 119.192 52.5624 117.942 51.6358 118.1C51.4157 118.136 51.184 118.221 51.103 118.282C50.906 118.452 50.6396 119.496 50.3385 121.207C50.1995 121.972 50.0141 123.064 49.9099 123.634C49.6782 124.921 49.0528 126.972 48.601 127.931C48.4041 128.319 48.2535 128.684 48.2535 128.72C48.2651 128.841 50.6975 126.147 51.1493 125.516ZM45.3346 121.729C45.3925 121.608 45.4736 121.134 45.5084 120.661C45.5431 120.2 45.6126 119.714 45.6474 119.605C45.8327 119.119 45.4852 119.435 45.184 120.03C44.9987 120.37 44.6975 120.904 44.5122 121.195C44.2342 121.62 44.1995 121.741 44.3269 121.826C44.6165 122.008 45.2304 121.947 45.3346 121.729Z" fill="#4F649B"/>
<path d="M22.8418 121.985C22.6797 121.536 22.8071 121.099 23.4094 120.055C23.7685 119.449 24.1739 118.599 24.3245 118.162C24.4866 117.737 24.7994 116.936 25.0195 116.402C25.2511 115.844 25.5407 114.849 25.6797 114.157C25.8071 113.465 26.0388 112.348 26.1893 111.681C26.6643 109.557 26.6643 109.52 26.2357 109.023C25.8998 108.622 25.8766 108.525 25.9229 107.93C25.9924 107.044 26.2473 106.68 27.1044 106.28C27.8689 105.916 29.6759 105.369 30.5562 105.248C31.228 105.139 32.1778 105.345 32.6179 105.697C33.8805 106.668 33.4172 109.314 31.367 112.894C30.811 113.865 29.7338 115.455 27.5678 118.478C25.9345 120.759 24.3361 122.179 23.4094 122.179C23.0619 122.179 22.8882 122.119 22.8418 121.985ZM27.9037 114.812C29.5832 112.288 30.9732 109.69 31.0774 108.865C31.1353 108.44 31.1006 108.355 30.7183 108.003C30.2087 107.542 29.8496 107.518 29.143 107.894C28.5176 108.222 28.5986 107.87 27.9732 112.652C27.8689 113.465 27.5678 114.618 27.2318 115.54C27.0697 115.965 27.2898 115.722 27.9037 114.812Z" fill="#4F649B"/>
<path d="M29.5234 118.599C29.3033 117.98 29.9404 116.511 31.1798 114.764C32.6045 112.761 33.5427 111.39 33.5427 111.317C33.5427 111.28 33.4269 111.256 33.2995 111.256C33.0562 111.256 33.0446 111.22 33.1141 110.382C33.2184 109.156 33.4037 108.986 35.0832 108.647C35.535 108.549 36.1026 107.566 36.6817 105.891C37.2724 104.168 37.6199 103.367 38.1527 102.517C38.7435 101.583 38.813 101.546 39.6817 101.583L40.4346 101.607L40.5273 102.881C40.5852 103.585 40.5968 104.69 40.5736 105.333C40.5273 106.45 40.5388 106.51 40.7705 106.547C40.9906 106.583 41.0138 106.668 41.0138 107.275C41.0138 107.858 40.9443 108.052 40.5736 108.61C40.284 109.059 40.145 109.411 40.145 109.69C40.145 109.921 39.9829 110.564 39.786 111.135C39.3342 112.421 38.8709 114.084 38.9288 114.157C38.9636 114.181 39.091 114.072 39.2184 113.914C39.6817 113.344 40.0176 112.64 40.2609 111.681C40.3999 111.147 40.7473 110.164 41.0369 109.508C41.3612 108.756 41.6624 107.797 41.8361 106.959C41.9867 106.219 42.1721 105.357 42.2416 105.042C42.311 104.726 42.4385 103.767 42.5195 102.918C42.6006 102.056 42.728 101.219 42.786 101.037C42.9944 100.502 43.3883 100.32 44.2107 100.357C44.9404 100.393 44.9404 100.393 45.0446 100.818C45.2184 101.607 45.3805 102.092 45.7396 102.881C45.9365 103.318 46.1798 103.974 46.2956 104.338L46.4925 105.005L46.5852 104.034C46.701 102.857 46.701 101.813 46.5736 100.49C46.4925 99.6407 46.5157 99.4465 46.6778 99.1795C46.9211 98.8033 47.5118 98.512 48.0446 98.512C48.9249 98.5241 48.9829 98.7547 48.8323 101.643C48.6354 105.721 48.4732 107.882 48.2995 108.744C48.0562 109.982 48.1026 109.97 48.6354 108.707C49.0524 107.712 49.2493 107.409 50.1296 106.45L51.1489 105.345L50.5118 105.406C49.7473 105.467 49.3651 105.382 49.0639 105.066C48.867 104.86 48.8323 104.653 48.8323 103.731C48.8323 102.457 48.9365 102.19 49.9095 100.867C50.257 100.393 50.8593 99.5194 51.2416 98.9246C52.6315 96.7642 53.6624 96.1816 54.9134 96.8128C55.4462 97.0798 55.8979 97.8444 55.8979 98.4634C55.8979 100.017 54.7744 100.879 53.9288 99.9806L53.5929 99.6407L52.6663 100.697C52.1566 101.291 51.589 101.947 51.4153 102.165L51.091 102.566L51.9597 102.068C53.1875 101.364 54.0099 101.146 55.0408 101.206C56.0485 101.279 56.6045 101.607 56.9172 102.299C57.0215 102.554 57.1489 102.76 57.1836 102.76C57.23 102.76 57.2995 102.359 57.3458 101.886C57.3805 101.401 57.4616 100.733 57.5195 100.393C57.5775 100.066 57.6817 99.2645 57.7628 98.6334C57.9944 96.6064 58.5041 95.599 59.3033 95.599C59.8246 95.599 60.3805 96.1574 60.4732 96.7885C60.6238 97.7231 61.0524 98.9489 61.7937 100.49L62.5582 102.092L62.5234 99.7864C62.5002 98.5241 62.4539 97.0312 62.4192 96.4972C62.3497 95.2713 62.4539 94.9922 63.0331 94.9922C63.3458 94.9922 63.6122 95.1257 64.0987 95.5262C64.4693 95.8175 65.2338 96.303 65.8014 96.6064C66.6933 97.0676 66.9134 97.2497 67.3419 97.8444C67.6083 98.2328 67.8632 98.6819 67.9095 98.8518C68.0022 99.2402 67.7705 100.903 67.5968 101.121C67.5157 101.219 67.2029 101.34 66.8902 101.376C66.3342 101.449 65.3149 102.032 65.2107 102.335C65.1759 102.408 65.4655 103.173 65.8477 104.01C66.8323 106.183 67.3651 108.015 67.3651 109.193C67.3651 109.52 67.4693 110.127 67.5968 110.552C67.9095 111.596 67.8168 113.101 67.4114 113.526C67.1334 113.817 66.4269 113.914 66.1141 113.696C65.8593 113.538 65.6276 112.348 65.6276 111.195C65.6161 110.601 65.5697 109.86 65.5002 109.557C65.4307 109.253 65.3381 108.683 65.2686 108.282C65.1527 107.542 64.7937 106.34 64.5157 105.794L64.3651 105.491L64.3535 105.77C64.3535 106.061 62.4655 112.118 62.1064 112.98C61.8632 113.586 61.423 113.805 60.4732 113.805H59.7203V113.259C59.7203 112.628 59.9056 112.178 60.3574 111.742C60.5195 111.584 60.7628 111.195 60.8902 110.892C61.2261 110.115 61.8632 107.821 62.0369 106.826C62.118 106.365 62.2802 105.612 62.4076 105.163C62.535 104.726 62.6161 104.192 62.5929 103.998L62.5582 103.634L61.9095 104.144C61.3072 104.617 61.2724 104.678 61.4693 104.799C61.7821 105.005 61.7821 106.425 61.4809 106.947C61.3651 107.154 61.2261 107.627 61.1914 108.003C61.0755 108.986 60.7744 109.702 59.8709 111.147C58.7358 112.955 58.562 113.186 58.0292 113.514C57.3921 113.914 56.3612 113.926 56.0022 113.55C55.7589 113.295 55.7473 113.21 55.8284 111.632C55.8632 110.722 55.979 109.63 56.0717 109.193C56.3149 108.064 56.2802 107.809 55.979 108.464C55.4578 109.593 53.9751 111.644 52.9674 112.628C52.0176 113.55 50.6161 114.157 49.4462 114.169C48.4037 114.169 47.9404 113.671 47.7898 112.373C47.7435 111.924 47.6971 111.657 47.6856 111.79C47.6045 112.98 47.0138 113.477 45.728 113.416L44.952 113.38L44.9983 111.305C45.0331 109.375 45.0099 109.156 44.7203 107.979C44.3265 106.353 44.257 106.219 44.1527 106.972C44.0717 107.627 43.5852 109.29 43.2956 109.86C43.2029 110.054 42.9018 110.892 42.6354 111.705C42.0794 113.38 41.118 115.128 40.5388 115.516C40.1219 115.783 38.9983 115.832 38.7782 115.601C38.6624 115.48 38.6161 115.492 38.5697 115.686C38.4307 116.232 37.0524 116.815 36.2647 116.669C35.4771 116.511 35.4192 115.589 36.1373 114.606C36.369 114.29 36.5543 113.89 36.5543 113.732C36.5543 113.562 36.8207 112.846 37.145 112.13C37.7705 110.758 38.0369 109.678 37.7589 109.678C37.6663 109.678 37.3999 109.763 37.145 109.872C36.786 110.018 36.5775 110.237 36.2184 110.843C35.952 111.28 35.7435 111.657 35.7435 111.693C35.7435 111.717 35.3612 112.312 34.8979 112.992C34.423 113.671 33.8323 114.642 33.5659 115.14C33.1141 116.014 31.8632 117.592 30.9829 118.393C30.647 118.696 30.45 118.781 30.0794 118.781C29.7551 118.781 29.5697 118.72 29.5234 118.599ZM51.2531 111.487C51.7512 111.171 52.1219 110.758 52.9211 109.642C54.1489 107.918 54.7975 106.571 55.2145 104.848C55.3535 104.265 55.3419 104.192 55.1334 103.889C54.6933 103.27 54.5775 103.27 53.6624 103.767C53.2107 104.01 52.6778 104.35 52.4925 104.508L52.1566 104.799L52.6663 104.738C52.9443 104.702 53.3612 104.726 53.5813 104.787C53.9867 104.896 53.9867 104.908 53.9867 105.588C53.9867 105.964 53.9288 106.328 53.8477 106.413C53.7782 106.486 53.5002 106.595 53.2222 106.656C52.6431 106.79 51.8207 107.311 51.3458 107.833C50.9983 108.222 50.118 110.212 50.0253 110.868C49.979 111.147 50.0253 111.329 50.1643 111.499C50.4307 111.814 50.7551 111.802 51.2531 111.487ZM58.9674 108.513C59.2802 107.845 59.396 107.396 59.5002 106.45C59.5813 105.794 59.7087 105.163 59.8014 105.066C59.9288 104.92 59.8825 104.872 59.4655 104.763C59.1875 104.69 58.9327 104.641 58.8863 104.666C58.8516 104.69 58.7821 105.042 58.7358 105.454C58.6894 105.879 58.5041 106.729 58.3072 107.348C57.9134 108.671 57.6354 109.933 57.6354 110.516C57.6354 110.928 57.6354 110.928 58.0987 110.152C58.3535 109.727 58.7473 108.986 58.9674 108.513ZM60.0794 102.129C60.2415 101.983 60.2184 101.838 59.8941 100.854C59.6856 100.235 59.4887 99.7742 59.4423 99.8107C59.4076 99.8592 59.3728 100.163 59.3728 100.502C59.3728 100.842 59.3149 101.328 59.2454 101.595C59.1527 101.971 59.1527 102.092 59.2802 102.165C59.5002 102.323 59.8825 102.299 60.0794 102.129ZM64.9558 99.3494C65.4539 99.0824 65.4539 99.0582 64.7937 98.6455L64.3535 98.3663V98.9853C64.3535 99.3252 64.3767 99.6043 64.4114 99.6043C64.4462 99.6043 64.6894 99.4951 64.9558 99.3494Z" fill="#4F649B"/>
<path d="M37.0213 92.443C32.7819 92.2852 31.9479 92.176 30.2452 91.4842C28.3919 90.7317 25.7278 88.5955 25.0791 87.3575C24.9749 87.1512 24.7316 86.7992 24.5347 86.5565C24.1988 86.1559 24.1641 86.0588 24.1641 85.2821C24.1641 84.8087 24.2104 84.3354 24.2683 84.214C24.3262 84.1048 24.4652 83.777 24.5695 83.4979C24.6853 83.2066 25.0907 82.6726 25.5077 82.2478C26.2258 81.5195 26.2374 81.5195 26.9209 81.5195C27.6738 81.5195 27.7896 81.6045 28.1371 82.4055C28.3572 82.9274 28.3803 83.3037 28.2182 83.7649C28.0676 84.1654 28.195 84.4203 28.8205 85.015C29.0869 85.2578 29.5386 85.719 29.8514 86.0346C30.3726 86.5686 31.8205 87.5396 32.7935 88.0008C33.0483 88.1222 33.4189 88.3042 33.6043 88.3892C34.3803 88.7654 34.8552 88.8383 37.1371 88.9111C39.4189 88.996 39.5348 89.0082 40.2066 89.348C40.7741 89.6272 41.1216 89.7 42.083 89.7607C43.2413 89.8457 43.2877 89.8578 43.6931 90.2583C44.0985 90.6831 44.1101 90.6953 44.0521 91.4599C43.9711 92.4794 43.8321 92.6129 42.8128 92.5037C41.6545 92.3945 41.6545 92.3945 40.612 92.4673C40.0676 92.5037 38.4575 92.4916 37.0213 92.443Z" fill="#4F649B"/>
<path d="M43.2756 88.7271C42.8586 88.4965 42.5922 88.4358 41.8509 88.4358C40.9706 88.4358 40.264 88.2174 40.264 87.9503C40.264 87.8897 40.1366 87.5498 39.986 87.1978C39.8355 86.8458 39.5227 86.0933 39.2795 85.5229C37.9938 82.4643 37.7505 81.991 36.8934 80.9836C35.5613 79.4179 34.2988 78.5926 32.4107 78.0464C31.5884 77.8036 31.3451 77.8886 29.2602 79.1873C27.766 80.1218 25.7505 81.2263 24.1173 82.0031C23.4339 82.3308 22.125 82.5371 21.3258 82.4522C20.237 82.3429 18.986 81.5176 18.5458 80.6195C18.4763 80.4738 18.3605 80.2553 18.291 80.1218C18.1636 79.867 18.0478 79.5757 17.7814 78.8474C17.457 77.9857 17.6424 75.2548 18.0825 74.1746C18.1636 73.9804 18.3721 73.4585 18.5343 73.0337C18.6964 72.6089 19.0092 71.9899 19.2292 71.6379C19.7389 70.8369 21.6733 68.8585 22.1945 68.6036C22.4146 68.4944 22.7273 68.3245 22.8895 68.2274C23.7003 67.7298 24.6038 68.2638 24.708 69.2955C24.7659 69.7688 24.7196 69.8902 24.3373 70.4242C24.0941 70.7519 23.7813 71.1524 23.6192 71.3102C23.2717 71.6865 21.847 74.7451 21.5111 75.8374C21.1868 76.9298 21.1983 77.658 21.5574 78.3013C21.708 78.5804 22.0091 78.896 22.2061 79.0052C22.5535 79.1751 22.6115 79.1751 23.0053 78.9567C23.237 78.8232 23.6076 78.5561 23.8277 78.3498C24.0478 78.1435 24.4416 77.8643 24.7196 77.7429C24.986 77.6216 25.2061 77.4638 25.2061 77.391C25.2061 77.3303 25.2871 77.2696 25.3798 77.2696C25.4725 77.2696 25.8431 77.1118 26.1906 76.9055C26.5381 76.7113 26.9088 76.5414 26.9899 76.5414C27.071 76.5414 27.3953 76.4321 27.6965 76.2865C27.9976 76.1408 28.5189 75.9831 28.8432 75.9345C29.1675 75.886 29.8741 75.7524 30.4185 75.6311C31.4609 75.4126 33.4069 75.4369 35.3412 75.6796C35.8509 75.7524 36.6385 75.8374 37.0787 75.886C38.0748 75.9831 38.793 76.4443 39.708 77.5488C40.3914 78.3741 40.6926 78.8596 41.3065 80.0976L41.7119 80.9108L41.7467 79.8548C41.7814 78.8717 41.7351 78.544 41.4107 77.4395C41.3528 77.2332 41.3065 76.9419 41.3065 76.772C41.3065 76.6142 41.2254 76.3714 41.1328 76.2501C41.0401 76.1166 40.959 75.8253 40.959 75.6068C40.959 75.267 41.0401 75.1577 41.4571 74.8786C41.7235 74.6965 41.9899 74.478 42.0362 74.3931C42.1405 74.211 42.905 74.1867 43.1482 74.3445C43.3104 74.4538 43.4841 74.7572 43.9474 75.7524C44.5613 77.0633 44.7119 78.2527 44.8857 83.3382C44.9899 86.6759 44.9783 87.3313 44.7582 88.4115C44.6308 89.0305 44.6192 89.0427 44.2138 89.0305C43.9822 89.0184 43.5652 88.8849 43.2756 88.7271Z" fill="#4F649B"/>
<path d="M38.4314 70.1091C38.026 69.9877 37.4584 69.7207 37.1572 69.5386C36.8561 69.3444 36.4738 69.1138 36.2885 69.0046C35.6167 68.6283 34.6785 67.6331 33.9603 66.5286C33.3001 65.5334 33.2074 65.3149 33.1727 64.7444L33.1379 64.1012L32.1534 64.0283C30.9835 63.9555 29.1649 63.7128 28.47 63.555C28.2036 63.4822 27.8445 63.4336 27.6939 63.4336C27.5317 63.4336 27.3117 63.3851 27.1958 63.3244C27.0916 63.2637 26.4776 63.0088 25.8406 62.7539C25.2035 62.5112 24.3811 62.1471 23.9989 61.9529C23.1301 61.4917 21.5317 59.841 21.1495 59.0035C20.7325 58.069 20.6977 57.9719 20.5008 56.9402C20.2112 55.4231 20.1301 54.8041 20.1186 54.1244C20.107 53.5782 20.1649 53.4204 20.4429 53.0927C20.7556 52.7286 20.8367 52.6922 21.5085 52.6922C22.3541 52.6922 22.8753 52.8864 23.1186 53.2748C23.2112 53.4204 23.3271 53.9302 23.3734 54.3914C23.4892 55.593 23.6514 56.2969 23.9294 56.8431C24.0568 57.098 24.161 57.3529 24.161 57.4257C24.161 57.4985 24.2421 57.6684 24.3348 57.7898C24.4275 57.9233 24.6591 58.251 24.8328 58.5181C25.0182 58.7851 25.5278 59.2584 25.968 59.5619C26.7093 60.0716 26.9642 60.1809 28.2499 60.5328C28.5163 60.6057 28.8175 60.7027 28.9101 60.7392C29.0028 60.7756 30.08 60.8969 31.2846 61.0062C33.1495 61.1882 33.5317 61.1882 33.7982 61.0547C33.9719 60.9576 34.2499 60.8848 34.4236 60.8848C34.8059 60.8848 35.246 60.7392 36.6128 60.1808C38.3966 59.4526 39.1379 58.7851 40.4352 56.7703C40.887 56.0785 41.2692 55.4473 41.2924 55.3745C41.3155 55.3017 41.4893 55.0104 41.663 54.7312C41.8483 54.4521 41.9989 54.1972 41.9989 54.1608C41.9989 54.1244 42.1379 53.7845 42.3001 53.3962C42.8561 52.1217 42.9256 51.9276 42.9951 51.5513L43.0761 51.175L42.5781 51.6727C41.6978 52.5708 40.1109 53.5539 39.0684 53.8452C38.246 54.0758 37.9101 54.1122 36.5549 54.0637C34.7595 53.9909 33.9835 53.7481 32.9063 52.8743C32.2113 52.3159 32.1186 52.0489 32.1302 50.7502C32.1534 49.7064 32.3387 49.4758 33.219 49.4758C33.6823 49.4758 33.8329 49.5365 34.0646 49.7914C34.2267 49.9735 34.3541 50.1798 34.3541 50.2526C34.3657 50.5196 35.0144 51.175 35.5124 51.4057C36.3927 51.8305 37.0877 51.7455 38.2576 51.1144C38.8136 50.8109 39.4738 50.3254 39.7402 50.0463C40.3773 49.3666 41.3039 48.1043 41.3039 47.9223C41.3039 47.8373 41.4893 47.5217 41.7209 47.2183C41.941 46.9027 42.219 46.4536 42.3464 46.2109C42.4622 45.9681 42.775 45.5555 43.0414 45.2885C43.3194 45.0214 43.829 44.3903 44.1881 43.8927C45.0337 42.6911 45.6939 42.0842 46.69 41.5745C47.4314 41.1861 47.5935 41.1618 48.8213 41.1133C50.246 41.0647 50.6399 41.1497 51.7982 41.708C52.5626 42.0721 53.2344 42.7761 53.8483 43.8563C54.0916 44.2811 54.3232 44.536 54.5665 44.6209C55.3541 44.9243 56.1997 45.4705 56.4545 45.8468C56.663 46.1502 56.7094 46.3808 56.6862 46.9148C56.6746 47.2911 56.7209 47.7159 56.802 47.8494C56.8715 47.9951 56.9873 48.3228 57.0453 48.5777C57.1032 48.8447 57.219 49.2695 57.2885 49.5365C57.358 49.8035 57.4622 50.2405 57.5202 50.5075C57.5781 50.7745 57.6707 51.1872 57.7402 51.4178C57.8097 51.6484 57.9603 52.231 58.0761 52.6922C58.192 53.1655 58.3773 53.7117 58.4816 53.9181C58.7132 54.3914 59.026 55.9207 59.026 56.5882C59.026 57.9112 58.3889 58.6273 56.1997 59.7925C55.2731 60.2779 55.1456 60.6299 55.1804 62.4991C55.2036 63.555 55.1688 64.1254 55.0761 64.2347C54.8677 64.5017 53.9642 64.441 53.2808 64.1012C52.4584 63.6885 52.2499 63.1545 52.2499 61.3703C52.2499 60.2901 52.2846 60.0231 52.5047 59.6104C52.9333 58.7851 53.3734 58.336 54.3001 57.7655C55.3426 57.1465 55.6669 56.6853 55.6669 55.8843C55.6669 55.593 55.6205 55.3017 55.5626 55.241C55.5047 55.1682 55.4352 54.8526 55.4005 54.5128C55.331 53.8695 55.0761 52.6072 54.9256 52.2067C54.3232 50.641 54.0916 50.0827 54.0105 50.0827C53.8368 50.0827 53.1418 51.9761 52.9912 52.8743C52.829 53.7967 52.6785 54.4885 52.4931 55.1803C52.3889 55.5444 52.2499 56.1998 52.192 56.6368C52.1341 57.0737 52.0298 57.6684 51.9603 57.9719C51.8908 58.2753 51.7518 59.0642 51.6592 59.7318C51.4738 61.0062 51.1032 62.3898 50.8599 62.7054C50.7788 62.8025 50.6167 63.1059 50.4893 63.3729C50.1534 64.089 49.7711 64.7566 49.4584 65.1935C49.3078 65.412 49.1804 65.6183 49.1804 65.6669C49.1804 65.8975 48.3232 67.0505 47.9989 67.2568C47.7904 67.3782 47.3155 67.7181 46.9333 68.0093C46.0298 68.7133 43.6321 69.927 42.6823 70.1576C41.6051 70.4368 39.3927 70.4004 38.4314 70.1091ZM42.5202 66.5407C43.8059 66.1888 45.0453 65.327 46.1688 64.0041C46.9565 63.0816 47.4777 62.1228 48.2422 60.2173C48.4507 59.7196 48.6012 58.4695 48.6012 57.3529C48.6012 56.7217 48.6707 55.775 48.7634 55.2289C48.8561 54.6948 48.9719 53.8574 49.0182 53.3597C49.0646 52.8743 49.1688 52.3281 49.2499 52.1582C49.3426 51.9882 49.4121 51.7576 49.4121 51.6605C49.4121 51.4906 49.7248 50.7745 50.4661 49.2088C50.6514 48.8326 50.802 48.4078 50.802 48.2864C50.802 48.1529 50.9294 47.7524 51.08 47.3882L51.358 46.7207L51.0568 46.308C50.663 45.774 50.4893 45.6283 49.9449 45.3613C49.69 45.2278 49.4005 45.1671 49.2499 45.2156C47.8136 45.6647 47.0955 46.8663 46.968 48.9903C46.829 51.2964 46.6321 52.3766 46.1804 53.3597C46.053 53.651 45.9371 53.9787 45.9371 54.088C45.9371 54.3307 45.2769 55.6537 44.6862 56.6246C44.4545 57.0009 44.1881 57.45 44.0839 57.632C43.9912 57.8141 43.4931 58.421 42.9835 58.9793C42.4738 59.5497 41.802 60.3265 41.4777 60.7149C40.3194 62.1228 39.8561 62.6083 39.2885 63.0452C38.9642 63.288 38.6862 63.5307 38.663 63.5793C38.6399 63.64 38.5588 63.6764 38.4893 63.6764C38.4082 63.6764 38.1997 63.7977 38.026 63.9555L37.7016 64.2225L37.968 64.5017C39.0568 65.6183 39.8213 66.1281 41.0144 66.5286C41.6283 66.7349 41.8252 66.7349 42.5202 66.5407Z" fill="#4F649B"/>
<path d="M71.8606 61.5174C71.571 61.3354 71.5363 61.2504 71.5363 60.6193C71.5363 60.243 71.5942 59.891 71.6521 59.8546C71.7216 59.8182 71.7679 59.624 71.7679 59.4298C71.7679 59.2356 71.8143 58.9565 71.8722 58.7987C71.9301 58.6409 72.0458 58.2768 72.1269 57.9734C72.2195 57.6699 72.4049 57.1723 72.5439 56.8567C72.6944 56.529 72.8104 56.2135 72.8104 56.1406C72.8104 56.0678 72.9146 55.8008 73.0421 55.5581C73.2853 55.0726 73.5865 54.1623 73.737 53.4219C73.795 53.1549 73.8992 52.7179 73.9687 52.4509C74.1193 51.8683 74.2699 50.8852 74.432 49.4409C74.7216 46.8921 74.0266 45.2171 72.3239 44.3432C71.0614 43.7 70.7139 43.6272 69.2776 43.7C64.8297 43.9306 64.8529 43.9306 64.4011 43.6514C64.1347 43.4694 63.9726 43.263 63.9262 43.0324C63.8915 42.8382 63.8104 42.644 63.7641 42.6076C63.6019 42.5105 63.6482 40.8477 63.822 40.3137C63.9031 40.0467 64.0189 39.4155 64.0652 38.9179C64.1347 38.0926 64.2042 37.8256 64.6212 36.8546C64.7023 36.6847 64.9222 36.3327 65.1307 36.0535C65.4667 35.6166 65.5942 35.5438 66.2428 35.4224C67.1463 35.2525 67.6444 35.2403 67.9224 35.386C68.0266 35.4588 68.2583 35.5316 68.4204 35.568C68.988 35.6894 69.3123 36.187 69.3934 37.0366C69.4861 37.9348 69.405 38.5295 69.0923 39.2092C68.9764 39.4762 68.8722 39.7311 68.8722 39.7796C68.8722 39.8282 69.3007 39.901 69.8336 39.9374C70.3548 39.986 71.0265 40.0467 71.3161 40.0831L71.8489 40.1438L71.9185 39.6219C71.9996 38.9665 72.3006 38.7116 73.401 38.3353C75.6018 37.5828 77.2467 37.5343 79.4127 38.1654C80.9764 38.6145 81.8567 39.5855 82.6096 41.6609C83.2583 43.4208 83.0729 47.4018 82.2969 48.5913C82.1 48.8826 81.9031 49.1132 81.8451 49.1132C81.7872 49.1132 81.4282 49.538 81.0691 50.0599C80.6984 50.5697 80.1309 51.3343 79.8065 51.747C79.4359 52.2325 79.1463 52.7665 79.0073 53.2034C78.9031 53.5918 78.7293 54.0894 78.6366 54.3201L78.4745 54.7327L77.6867 54.6599L76.8992 54.5871L76.6675 55.0968C76.5401 55.376 76.3199 55.8493 76.1809 56.1528C76.0419 56.4562 75.8567 56.8325 75.7641 57.0024C75.3818 57.6942 74.8953 58.7501 74.8953 58.8958C74.8953 58.9686 74.8257 59.1021 74.7331 59.1749C74.652 59.2478 74.4783 59.5755 74.3741 59.891C74.0382 60.7892 73.4475 61.566 73.0305 61.6631C72.4629 61.7723 72.1965 61.748 71.8606 61.5174ZM78.7408 47.2683C79.0304 46.6493 79.378 45.7997 79.517 45.387L79.7718 44.6224L79.5054 43.8092C79.1116 42.5712 78.2427 41.4789 77.3508 41.1026C76.9802 40.9448 75.428 40.9934 75.2659 41.1633C75.2195 41.1997 75.3702 41.3818 75.5903 41.5638C76.4822 42.2799 77.3162 43.348 77.5363 44.0762C77.6173 44.3432 77.7332 44.6709 77.7795 44.8045C77.988 45.3264 78.1386 46.3823 78.1386 47.3654C78.1386 47.9237 78.1617 48.385 78.1849 48.385C78.2081 48.385 78.4628 47.8752 78.7408 47.2683Z" fill="#4F649B"/>
<path d="M66.6157 59.6619C65.1099 59.4313 63.4304 58.2661 62.6196 56.8825L62.1562 56.0936V54.5522C62.1562 52.8287 62.33 51.9062 62.8628 50.8139C63.0481 50.4255 63.1987 50.0493 63.1987 49.9764C63.1987 49.9036 63.2451 49.7458 63.303 49.6245C63.3493 49.5152 63.5925 48.9812 63.8358 48.4471C64.7161 46.493 64.9709 46.0075 65.3763 45.5585C65.7933 45.1094 65.8049 45.1094 66.6852 45.1094C67.8551 45.1094 68.1099 45.2307 68.4111 45.8497C68.7238 46.5416 68.7122 47.1848 68.3647 47.7675C68.2026 48.0223 67.9709 48.5078 67.8319 48.8234C67.6929 49.1511 67.2759 50.0857 66.8937 50.8989C66.1524 52.501 65.6891 54.0545 65.8165 54.4915C65.8976 54.7828 66.3146 55.3047 66.4535 55.3047C66.4999 55.3047 66.998 55.0741 67.5655 54.7949C68.4227 54.3822 68.7586 54.2851 69.662 54.188C70.9362 54.0667 71.5617 54.2002 71.8512 54.6493C72.0018 54.9041 72.025 55.159 71.9671 56.1421C71.886 57.5379 71.7007 57.9506 70.9014 58.5817C70.6118 58.8002 70.3802 59.0308 70.3802 59.0793C70.3802 59.14 70.1485 59.3221 69.8821 59.492C69.4304 59.759 69.2566 59.7954 68.3416 59.7833C67.774 59.7712 66.9979 59.7226 66.6157 59.6619Z" fill="#4F649B"/>
</g>
<defs>
<clipPath id="clip0_855_1720">
<rect width="90" height="138" fill="white" transform="translate(15 35.2852)"/>
</clipPath>
</defs>
</svg>
