<svg width="383" height="62" viewBox="0 0 383 62" fill="none" xmlns="http://www.w3.org/2000/svg">
<path d="M20.1823 30.4922H21.6406L23.2943 31.9375V33.1745L21.237 34.6328L17.7083 34.0078C13.7934 35.3273 9.9349 35.3273 6.13281 34.0078H1.99219L0.963542 33.1745L1.36719 31.3125C3.96267 30.4531 6.38021 30.6615 8.61979 31.9375C12.1875 32.6319 15.7682 32.5625 19.362 31.7292L20.1823 30.4922Z" fill="#4F4A4A"/>
<path d="M39.2031 13.125H42.9375C49.4479 15.3021 55.2031 20.2812 60.2031 28.0625L62.5469 35.0625V37.8594C62.5469 40.974 61.3021 42.5312 58.8125 42.5312H57.4062C54.8333 42.5312 52.6563 41.2865 50.875 38.7969V38.3281L52.2656 36.9375H52.7344C54.3906 38.8021 56.4167 39.7344 58.8125 39.7344L60.2031 36.4687C60.2031 30.3854 55.224 23.849 45.2656 16.8594L40.1406 15.4531H39.2031C37.3385 15.4531 36.4062 16.5417 36.4062 18.7188H35V18.2656C35 14.8385 36.401 13.125 39.2031 13.125ZM40.1406 20.5938H40.6094C41.6615 20.5938 43.3698 26.5052 45.7344 38.3281L47.1406 40.2031V41.125L45.2656 43C44.0052 43 41.9844 35.8438 39.2031 21.5312L40.1406 20.5938ZM69.4575 27.2812H69.9419C73.7544 28.4271 75.6606 29.5365 75.6606 30.6094V31.5625L74.7075 32.5156L71.3638 30.1406H70.4106C68.1919 31.5156 67.0825 33.5781 67.0825 36.3281C67.0825 38.8698 68.1919 40.1406 70.4106 40.1406C74.546 39.8281 76.6138 38.401 76.6138 35.8594V31.0938L77.5669 30.1406H78.0356L79.4731 31.5625L78.9888 34.4219L79.4731 34.9062V35.375L78.9888 36.8125C79.4992 38.3958 80.6138 39.1875 82.3325 39.1875L82.8013 38.7187L83.7544 40.1406C83.7544 40.776 82.4835 41.2552 79.9419 41.5781L77.5669 39.6719C75.5565 41.8906 73.4888 43 71.3638 43H70.895C67.3325 43 65.1085 41.2552 64.2231 37.7656C64.2231 32.8385 65.9679 29.3437 69.4575 27.2812ZM97.5244 28.7969C99.3056 28.7969 100.785 32.0521 101.962 38.5625L102.415 39V39.4531L105.524 39L105.962 40.3437C105.951 41.1354 104.915 42.0208 102.853 43C101.186 43 99.5608 39.599 97.9775 32.7969L97.5244 32.3437H96.1963L91.7588 38.125C90.8733 41.375 89.691 43 88.2119 43C86.5973 43 85.415 39.8958 84.665 33.6875L85.9931 32.7969H86.4463C87.0296 32.7969 87.3213 33.6823 87.3213 35.4531L88.2119 38.125L88.665 38.5625H89.1025C89.915 36.1667 92.7223 32.9115 97.5244 28.7969ZM117.794 24.8437H119.388L120.997 26.4375L119.794 27.6406L117.388 27.25C117.388 27.6667 116.19 28.1979 113.794 28.8438V30.0469C118.596 31.7448 120.997 34.5417 120.997 38.4375V39.6406C120.227 40.974 119.425 41.6406 118.591 41.6406C112.997 40.901 110.201 39.8333 110.201 38.4375V38.0469C110.201 37.5052 110.596 37.2344 111.388 37.2344C113.138 38.3073 115.138 38.8437 117.388 38.8437H118.201V38.0469C118.201 35.3073 115.664 33.0417 110.591 31.25L109.794 29.6406C109.794 28.3177 112.461 26.7187 117.794 24.8437ZM128.58 26C131.07 26.375 132.314 27.8958 132.314 30.5625V32.6406C132.314 33.9115 131.07 35.8437 128.58 38.4375C129.403 39.8229 130.507 40.5156 131.893 40.5156C133.049 40.5156 135.262 39.2708 138.533 36.7812H139.768V37.1875C137.33 41.0625 134.57 43 131.486 43C129.497 43 127.424 41.6198 125.268 38.8594H123.189L121.533 39.2656C120.273 38.7344 119.58 38.1823 119.455 37.6094L121.111 35.9531L125.268 36.3594V30.9687C125.268 29.2187 126.372 27.5625 128.58 26ZM128.58 28.4844L127.752 31.3906V33.875L128.58 34.7031C129.486 34.7031 130.314 33.599 131.064 31.3906C130.408 29.4531 129.856 28.4844 129.408 28.4844H128.58ZM148.022 29.8437H149.256C151.402 29.8437 152.907 30.6667 153.772 32.3125V33.1406C153.772 33.6823 153.36 33.9531 152.537 33.9531L149.256 32.3125C146.892 33.0833 144.558 36.6458 142.256 43H140.616C139.793 43 138.834 40.6719 137.741 36.0156C138.011 34.3698 138.423 33.5469 138.975 33.5469C139.579 33.5469 140.261 35.0521 141.022 38.0625C141.511 38 142.334 36.7656 143.491 34.3594L148.022 29.8437ZM219.781 16.5156H220.218C221.645 16.5156 223.593 23.25 226.062 36.7188L227.859 39.8594L228.296 39.4062H229.203L230.546 40.75L228.749 43H227.406C224.718 41.5417 222.322 34.2083 220.218 21L219.781 20.5625H218.874C217.979 22.3542 216.484 28.1875 214.39 38.0625L212.593 39.8594H211.702C210.15 39.8073 207.604 34.1198 204.062 22.7969L203.609 22.3594H203.171C201.244 35.526 199.744 42.1094 198.671 42.1094H197.327C196.067 42.1094 194.723 36.2708 193.296 24.5937L192.843 24.1406V23.7031L193.296 23.25H194.187C195.208 23.25 196.406 27.7396 197.781 36.7188C198.551 36.2188 200.046 29.7865 202.265 17.4219H203.171C204.838 18.1615 207.682 24.4427 211.702 36.2656H212.14C215.567 23.099 218.114 16.5156 219.781 16.5156ZM236.066 26C238.556 26.375 239.801 27.8958 239.801 30.5625V32.6406C239.801 33.9115 238.556 35.8437 236.066 38.4375C236.889 39.8229 237.993 40.5156 239.379 40.5156C240.535 40.5156 242.749 39.2708 246.019 36.7812H247.254V37.1875C244.816 41.0625 242.056 43 238.973 43C236.983 43 234.91 41.6198 232.754 38.8594H230.676L229.019 39.2656C227.759 38.7344 227.066 38.1823 226.941 37.6094L228.598 35.9531L232.754 36.3594V30.9687C232.754 29.2187 233.858 27.5625 236.066 26ZM236.066 28.4844L235.238 31.3906V33.875L236.066 34.7031C236.973 34.7031 237.801 33.599 238.551 31.3906C237.894 29.4531 237.342 28.4844 236.894 28.4844H236.066ZM262.758 11.3594H263.18V11.7812L261.477 22.4688V24.6094L261.055 25.0469L261.477 25.4688V25.8906L261.055 26.3281V26.75L261.477 27.1719V27.6094L261.055 29.75L261.477 32.7344H261.055C262.034 36.724 263.456 38.7187 265.321 38.7187L265.758 39.1562V40C265.758 40.75 263.19 41.6094 258.055 42.5781L255.914 43C249.894 43 246.331 40.2917 245.227 34.875C245.227 30.3437 248.076 27.776 253.774 27.1719L258.914 28.8906L259.336 27.1719L258.914 26.75V25.0469C259.769 15.9219 261.05 11.3594 262.758 11.3594ZM247.789 35.7344C249.477 39.151 252.326 40.8594 256.336 40.8594L258.914 40.4375V40.8594L261.477 40V39.5781C260.112 37.599 259.112 34.4635 258.477 30.1719L255.914 29.3125H254.211C249.93 29.3125 247.789 31.4531 247.789 35.7344ZM312.298 11.1562H314.533C317.741 12.7604 319.387 17.9948 319.47 26.8594C319.47 27.6823 318.423 28.7292 316.329 30H314.095L312.736 29.0937H311.392L314.533 42.1094L313.642 43H313.189C311.012 40.6979 309.069 33.6719 307.361 21.9219C308.975 15.5052 310.621 11.9167 312.298 11.1562ZM310.048 21.9219C310.048 24.1198 311.543 25.9115 314.533 27.2969H315.439C316.335 27.2969 316.783 25.8021 316.783 22.8125C316.783 19.9479 315.887 16.9583 314.095 13.8438H313.189C311.939 13.8438 310.892 16.5365 310.048 21.9219ZM325.537 16.0469L327.24 17.8125L326.677 18.4062L327.818 21.3594L327.24 21.9531H326.677C324.771 20.9427 323.818 19.3698 323.818 17.2344L325.537 16.0469ZM323.818 30.2187C325.339 30.75 326.099 32.5208 326.099 35.5312V37.8906C327.62 38.0885 328.381 38.6823 328.381 39.6719L326.677 41.4375H325.537C323.776 41.4375 322.636 38.0937 322.115 31.4062L323.818 30.2187ZM340.307 25.8125H341.619C343.953 27.5625 345.119 29.8906 345.119 32.7969L344.682 34.9844C346.713 34.9844 348.02 37.8958 348.604 43.7188C347.864 53.9167 345.39 59.0156 341.182 59.0156C336.817 57.0469 334.635 53.5521 334.635 48.5312V47.2188L335.932 45.9062H336.369V47.2188L335.932 47.6563C335.932 51.5833 337.828 54.4948 341.619 56.3906C343.755 56.3906 345.359 51.875 346.432 42.8437C345.369 39.0625 344.494 37.1719 343.807 37.1719H342.932C342.13 37.1719 339.073 39.2083 333.76 43.2812H333.323C330.989 43.2812 329.823 41.3906 329.823 37.6094C331.916 29.7448 335.411 25.8125 340.307 25.8125ZM332.448 38.0469V39.3594L333.323 40.2344H333.76C339.875 35.8802 342.932 32.9635 342.932 31.4844V31.0625C342.526 29.8542 341.796 28.9792 340.744 28.4375H340.307C336.536 28.4375 333.916 31.6406 332.448 38.0469ZM355.858 26C358.348 26.375 359.592 27.8958 359.592 30.5625V32.6406C359.592 33.9115 358.348 35.8437 355.858 38.4375C356.681 39.8229 357.785 40.5156 359.171 40.5156C360.327 40.5156 362.54 39.2708 365.811 36.7812H367.046V37.1875C364.608 41.0625 361.848 43 358.764 43C356.775 43 354.702 41.6198 352.546 38.8594H350.467L348.811 39.2656C347.551 38.7344 346.858 38.1823 346.733 37.6094L348.389 35.9531L352.546 36.3594V30.9687C352.546 29.2187 353.65 27.5625 355.858 26ZM355.858 28.4844L355.03 31.3906V33.875L355.858 34.7031C356.764 34.7031 357.592 33.599 358.342 31.3906C357.686 29.4531 357.134 28.4844 356.686 28.4844H355.858ZM375.3 29.8437H376.534C378.68 29.8437 380.185 30.6667 381.05 32.3125V33.1406C381.05 33.6823 380.639 33.9531 379.816 33.9531L376.534 32.3125C374.17 33.0833 371.836 36.6458 369.534 43H367.894C367.071 43 366.112 40.6719 365.019 36.0156C365.29 34.3698 365.701 33.5469 366.253 33.5469C366.857 33.5469 367.54 35.0521 368.3 38.0625C368.79 38 369.612 36.7656 370.769 34.3594L375.3 29.8437Z" fill="#4F4A4A"/>
</svg>
